<svg version="1.1" id="Layer_1" xmlns="http://www.w3.org/2000/svg" xmlns:xlink="http://www.w3.org/1999/xlink" x="0px" y="0px"
	 width="100%" viewBox="0 0 1640 2360" enable-background="new 0 0 1640 2360" xml:space="preserve">
<path fill="#000000" opacity="1.000000" stroke="none" 
	d="
M1456.000000,2361.000000 
	C970.666687,2361.000000 485.833344,2361.000000 1.000000,2361.000000 
	C1.000000,1574.333374 1.000000,787.666687 1.000000,1.000000 
	C547.666687,1.000000 1094.333374,1.000000 1641.000000,1.000000 
	C1641.000000,787.666687 1641.000000,1574.333374 1641.000000,2361.000000 
	C1579.500000,2361.000000 1518.000000,2361.000000 1456.000000,2361.000000 
M720.999023,1534.499878 
	C720.999023,1522.409668 720.999023,1510.319458 720.999023,1498.403442 
	C665.910767,1498.403442 611.524597,1498.403442 557.279175,1498.403442 
	C557.279175,1561.742310 557.279175,1624.677002 557.279175,1687.805420 
	C637.503052,1687.805420 717.449646,1687.805420 797.544006,1687.805420 
	C801.545105,1676.545776 805.546509,1665.285400 809.556396,1654.001221 
	C827.194580,1654.001221 844.522034,1654.070068 861.847778,1653.933472 
	C864.720093,1653.910767 865.319092,1655.437500 866.048584,1657.598633 
	C869.466736,1667.724121 873.008545,1677.808105 876.394775,1687.585449 
	C900.812012,1687.585449 924.833191,1687.585449 949.112732,1687.585449 
	C948.891052,1686.503540 948.826904,1685.851196 948.623291,1685.245728 
	C940.407043,1660.826904 932.160889,1636.417969 923.955078,1611.995605 
	C911.639587,1575.341187 899.327332,1538.685425 887.107727,1501.999146 
	C886.325012,1499.649170 885.912415,1497.922485 882.757324,1497.934448 
	C853.259338,1498.045532 823.760681,1498.015991 794.262329,1497.971313 
	C791.804993,1497.967529 790.553955,1498.498291 789.781982,1501.272217 
	C787.640686,1508.966309 784.944824,1516.506836 782.443787,1524.099976 
	C768.554565,1566.268677 754.659302,1608.435181 740.763367,1650.601685 
	C737.071289,1661.805176 733.369385,1673.005371 729.671997,1684.207153 
	C729.397888,1684.161255 729.123840,1684.115356 728.849731,1684.069458 
	C728.849731,1666.505859 728.849731,1648.942383 728.849731,1630.862793 
	C692.388489,1630.862793 656.331543,1630.862793 620.384521,1630.862793 
	C620.384521,1623.607422 620.384521,1616.882202 620.384521,1609.826172 
	C642.039551,1609.826172 663.311707,1609.826172 684.684875,1609.826172 
	C684.684875,1598.421021 684.684875,1587.366089 684.684875,1575.790039 
	C662.981506,1575.790039 641.588745,1575.790039 620.244629,1575.790039 
	C620.244629,1568.657593 620.244629,1562.052856 620.244629,1554.929321 
	C653.875305,1554.929321 687.265991,1554.929321 720.999023,1554.929321 
	C720.999023,1548.106201 720.999023,1541.802979 720.999023,1534.499878 
M1159.001831,1204.500000 
	C1159.001831,1222.588501 1159.001831,1240.676880 1159.001831,1258.595337 
	C1180.426025,1258.595337 1201.146973,1258.595337 1222.208008,1258.595337 
	C1222.208008,1214.255493 1222.208008,1170.319946 1222.208008,1126.330811 
	C1239.279175,1126.330811 1256.000610,1126.330811 1273.240479,1126.330811 
	C1273.240479,1170.714966 1273.240479,1214.770508 1273.240479,1258.742920 
	C1294.033691,1258.742920 1314.303955,1258.742920 1335.093506,1258.742920 
	C1335.093506,1214.433228 1335.093506,1170.377686 1335.093506,1125.801514 
	C1353.003662,1125.801514 1370.397583,1125.801514 1387.744751,1125.801514 
	C1387.744751,1106.674194 1387.744751,1088.073364 1387.744751,1069.300537 
	C1311.441895,1069.300537 1235.393433,1069.300537 1159.001831,1069.300537 
	C1159.001831,1114.233643 1159.001831,1158.866821 1159.001831,1204.500000 
M1394.001953,1228.500000 
	C1394.001953,1238.589355 1394.001953,1248.678589 1394.001953,1258.617188 
	C1451.740845,1258.617188 1508.782715,1258.617188 1565.745117,1258.617188 
	C1565.745117,1239.633301 1565.745117,1221.033447 1565.745117,1201.922729 
	C1529.444824,1201.922729 1493.395264,1201.922729 1457.346680,1201.922729 
	C1457.346680,1194.682251 1457.346680,1187.960449 1457.346680,1180.730713 
	C1479.078613,1180.730713 1500.467529,1180.730713 1521.731934,1180.730713 
	C1521.731934,1169.275146 1521.731934,1158.339233 1521.731934,1146.890991 
	C1500.081543,1146.890991 1478.692993,1146.890991 1457.365234,1146.890991 
	C1457.365234,1139.644043 1457.365234,1132.921265 1457.365234,1125.874023 
	C1490.993408,1125.874023 1524.257446,1125.874023 1557.719238,1125.874023 
	C1557.719238,1106.818481 1557.719238,1088.101440 1557.719238,1069.315918 
	C1503.063843,1069.315918 1448.688599,1069.315918 1394.001953,1069.315918 
	C1394.001953,1122.254272 1394.001953,1174.877197 1394.001953,1228.500000 
M807.999634,1239.499634 
	C807.999634,1227.078613 807.999634,1214.657715 807.999634,1201.735840 
	C771.256226,1201.735840 735.206604,1201.735840 699.263367,1201.735840 
	C699.263367,1194.615234 699.263367,1188.011108 699.263367,1180.897339 
	C720.909302,1180.897339 742.298096,1180.897339 763.638489,1180.897339 
	C763.638489,1169.322266 763.638489,1158.268188 763.638489,1146.880859 
	C742.011414,1146.880859 720.743835,1146.880859 699.281860,1146.880859 
	C699.281860,1139.817383 699.281860,1133.097046 699.281860,1125.864014 
	C732.944153,1125.864014 766.328003,1125.864014 799.625793,1125.864014 
	C799.625793,1106.629028 799.625793,1087.910889 799.625793,1069.232666 
	C744.995117,1069.232666 690.737671,1069.232666 636.266846,1069.232666 
	C636.266846,1132.505493 636.266846,1195.545288 636.266846,1258.700684 
	C693.573425,1258.700684 750.614685,1258.700684 807.999634,1258.700684 
	C807.999634,1252.437256 807.999634,1246.468262 807.999634,1239.499634 
M1143.005249,1685.272583 
	C1142.786621,1689.536987 1146.061279,1687.933838 1147.927490,1687.936523 
	C1202.077637,1688.015259 1256.227783,1688.002319 1310.378052,1687.989014 
	C1311.817993,1687.988647 1313.257935,1687.820923 1314.642822,1687.734619 
	C1314.642822,1668.663696 1314.642822,1649.945312 1314.642822,1630.716797 
	C1278.237427,1630.716797 1242.187012,1630.716797 1206.273926,1630.716797 
	C1206.273926,1623.594971 1206.273926,1616.991211 1206.273926,1609.875732 
	C1227.931030,1609.875732 1249.320068,1609.875732 1270.626953,1609.875732 
	C1270.626953,1598.298706 1270.626953,1587.244263 1270.626953,1575.857178 
	C1248.987671,1575.857178 1227.719482,1575.857178 1206.294434,1575.857178 
	C1206.294434,1568.791748 1206.294434,1562.070801 1206.294434,1554.837769 
	C1239.970215,1554.837769 1273.354858,1554.837769 1306.611450,1554.837769 
	C1306.611450,1535.600586 1306.611450,1516.881592 1306.611450,1498.248779 
	C1251.964966,1498.248779 1197.706299,1498.248779 1143.002441,1498.248779 
	C1143.002441,1560.433472 1143.002441,1622.370117 1143.005249,1685.272583 
M942.985901,1605.643311 
	C943.325745,1608.401978 943.526062,1611.186279 944.027649,1613.915283 
	C947.805847,1634.472900 958.134583,1651.513794 974.208862,1664.338013 
	C994.685486,1680.674316 1018.854675,1687.762939 1044.936279,1687.953369 
	C1073.427246,1688.161377 1101.920898,1688.000854 1130.413452,1688.001099 
	C1132.177856,1688.001221 1133.942383,1688.001099 1135.631958,1688.001099 
	C1135.631958,1668.639648 1135.631958,1649.920288 1135.631958,1630.999756 
	C1130.610474,1630.999756 1125.953003,1631.115356 1121.302734,1630.980713 
	C1094.774780,1630.213135 1068.156006,1632.942505 1041.713745,1628.983887 
	C1033.575562,1627.765503 1025.851562,1625.628296 1019.388428,1619.967407 
	C1010.207581,1611.925537 1008.929810,1590.752319 1012.844849,1578.460815 
	C1016.964905,1565.525635 1027.023560,1559.936768 1039.138916,1558.204590 
	C1052.305054,1556.322266 1065.680420,1555.512939 1078.990356,1555.123169 
	C1096.137817,1554.621094 1113.311035,1555.001099 1130.473145,1555.001099 
	C1132.231812,1555.001099 1133.990479,1555.001099 1135.611328,1555.001099 
	C1135.611328,1535.596436 1135.611328,1516.876465 1135.611328,1497.999023 
	C1127.230713,1497.999023 1119.231812,1497.787598 1111.247437,1498.036865 
	C1081.128540,1498.976807 1050.857666,1495.397827 1020.895935,1501.004517 
	C1006.300476,1503.735840 992.683411,1508.965820 980.188049,1517.046997 
	C966.018799,1526.210693 954.997620,1538.198486 949.140259,1554.110718 
	C945.957886,1562.755737 943.449402,1571.859741 942.273865,1580.968018 
	C941.271729,1588.732544 942.610107,1596.799316 942.985901,1605.643311 
M408.903381,1071.593506 
	C407.378235,1070.728760 405.856934,1069.117554 404.327423,1069.109741 
	C375.165161,1068.960083 346.001862,1069.028076 316.838989,1068.953247 
	C313.995392,1068.945923 312.444855,1069.452393 311.596222,1072.652222 
	C309.633087,1080.053833 307.128387,1087.316284 304.723724,1094.595703 
	C289.413147,1140.944092 274.057068,1187.277344 258.749725,1233.626709 
	C256.020966,1241.889282 253.449524,1250.203857 250.695847,1258.837891 
	C274.056335,1258.837891 296.692841,1258.837891 319.604492,1258.837891 
	C323.547943,1247.603516 327.506073,1236.327393 331.481506,1225.001831 
	C349.120117,1225.001831 366.444733,1225.075562 383.767456,1224.928467 
	C386.618530,1224.904297 387.301941,1226.302734 388.044891,1228.517822 
	C391.445648,1238.657104 394.987366,1248.749146 398.399170,1258.628418 
	C422.753784,1258.628418 446.792816,1258.628418 471.349030,1258.628418 
	C450.454865,1196.232056 429.725342,1134.327393 408.903381,1071.593506 
M814.001953,1233.500000 
	C814.001953,1241.921875 814.001953,1250.343750 814.001953,1258.636230 
	C869.724976,1258.636230 924.755249,1258.636230 979.759155,1258.636230 
	C979.759155,1239.677246 979.759155,1221.083252 979.759155,1201.977295 
	C945.482605,1201.977295 911.441345,1201.977295 876.909790,1201.977295 
	C876.909790,1157.428589 876.909790,1113.391113 876.909790,1069.334106 
	C855.699890,1069.334106 834.987488,1069.334106 814.001953,1069.334106 
	C814.001953,1123.945312 814.001953,1178.222656 814.001953,1233.500000 
M1048.999878,1160.500000 
	C1048.999878,1130.092407 1048.999878,1099.684937 1048.999878,1069.371948 
	C1027.623413,1069.371948 1006.910339,1069.371948 986.385620,1069.371948 
	C986.385620,1132.771606 986.385620,1195.798340 986.385620,1258.598633 
	C1041.800537,1258.598633 1096.831055,1258.598633 1151.721558,1258.598633 
	C1151.721558,1239.601440 1151.721558,1221.006958 1151.721558,1201.901855 
	C1117.406494,1201.901855 1083.365234,1201.901855 1048.999878,1201.901855 
	C1048.999878,1188.093628 1048.999878,1174.796875 1048.999878,1160.500000 
M515.000000,1147.500000 
	C515.000000,1184.578125 515.000000,1221.656372 515.000000,1258.617432 
	C536.059509,1258.617432 556.443787,1258.617432 577.153687,1258.617432 
	C577.153687,1214.308594 577.153687,1170.381714 577.153687,1125.937500 
	C594.866882,1125.937500 612.257324,1125.937500 629.644653,1125.937500 
	C629.644653,1106.700562 629.644653,1087.985718 629.644653,1069.382690 
	C573.917908,1069.382690 518.545959,1069.382690 463.252136,1069.382690 
	C463.252136,1088.366211 463.252136,1106.965820 463.252136,1126.081177 
	C480.553406,1126.081177 497.610748,1126.081177 515.000000,1126.081177 
	C515.000000,1133.230225 515.000000,1139.865112 515.000000,1147.500000 
M449.500458,1626.000122 
	C460.330963,1626.000122 471.161652,1625.962280 481.991974,1626.009277 
	C497.550293,1626.076782 511.734497,1621.333008 524.348511,1612.627319 
	C535.580933,1604.875122 545.636780,1595.492188 547.382019,1580.940796 
	C548.448486,1572.049072 548.506775,1562.909546 547.846375,1553.967773 
	C546.883240,1540.927734 541.978638,1529.130615 532.925537,1519.514404 
	C519.065918,1504.793091 501.071472,1498.578857 481.600403,1498.213623 
	C442.957397,1497.488403 404.291199,1497.999146 365.634583,1497.999146 
	C363.860687,1497.999146 362.086792,1497.999146 360.366333,1497.999146 
	C360.366333,1501.323120 360.366333,1504.041138 360.366333,1507.000000 
	C362.546112,1507.000000 364.362366,1507.000000 366.178650,1507.000000 
	C402.002655,1507.000000 437.828522,1506.803955 473.649414,1507.137939 
	C482.600861,1507.221436 491.788757,1508.028687 500.420776,1510.245239 
	C513.778442,1513.675171 525.172424,1521.068359 532.059387,1533.429199 
	C537.960083,1544.020142 541.196228,1555.412842 540.146484,1567.965210 
	C539.113525,1580.315308 534.853271,1591.078979 525.916138,1599.378662 
	C514.173828,1610.283813 499.927887,1616.492920 483.810089,1616.890381 
	C464.826599,1617.358643 445.822693,1617.000244 426.827637,1617.000244 
	C425.040405,1617.000244 423.253143,1617.000244 420.952576,1617.000244 
	C420.952576,1638.186523 420.952576,1658.910034 420.952576,1680.134033 
	C400.372070,1680.134033 380.306458,1680.134033 360.383728,1680.134033 
	C360.383728,1683.042847 360.383728,1685.431641 360.383728,1687.750122 
	C383.697418,1687.750122 406.628510,1687.750122 430.077759,1687.750122 
	C430.077759,1667.116333 430.077759,1646.725952 430.077759,1626.000122 
	C436.562225,1626.000122 442.531464,1626.000122 449.500458,1626.000122 
M121.035355,1109.041138 
	C121.345901,1108.105469 121.753365,1107.190063 121.952621,1106.231323 
	C125.526489,1089.033569 139.120102,1077.463989 157.828979,1077.843628 
	C186.970871,1078.434937 216.133591,1078.000000 245.287476,1078.000000 
	C247.067581,1078.000000 248.847672,1078.000000 250.679596,1078.000000 
	C250.679596,1074.731445 250.679596,1072.012329 250.679596,1069.285034 
	C249.889771,1069.161865 249.411865,1069.022583 248.933899,1069.022339 
	C216.114990,1069.009155 183.290115,1068.679077 150.482147,1069.276611 
	C143.793243,1069.398193 136.515427,1071.869263 130.638657,1075.231567 
	C114.608788,1084.402832 107.925507,1107.478516 112.491234,1126.026367 
	C116.701584,1143.130615 126.576630,1156.880371 138.169724,1169.505127 
	C144.329163,1176.212769 151.476578,1182.003906 157.851227,1188.528198 
	C159.999100,1190.726440 161.139450,1193.909058 162.740280,1196.641846 
	C160.038879,1198.147217 157.421249,1199.843018 154.603271,1201.083618 
	C153.025711,1201.778198 151.117722,1201.949951 149.355988,1201.961670 
	C138.194702,1202.035889 127.032692,1201.999512 115.870918,1201.999634 
	C113.628387,1201.999634 111.385857,1201.999634 109.291420,1201.999634 
	C109.291420,1205.420288 109.291420,1208.016602 109.291420,1210.987427 
	C122.038689,1210.987427 134.529846,1211.502441 146.948532,1210.776855 
	C153.460922,1210.396362 159.950180,1208.166504 166.251450,1206.151245 
	C170.277603,1204.863647 172.368118,1201.723267 172.090820,1196.976318 
	C171.714630,1190.535889 168.066162,1186.006958 164.089081,1181.648193 
	C155.266052,1171.978394 145.802948,1162.850098 137.491745,1152.766602 
	C127.357613,1140.471558 119.511063,1126.899292 121.035355,1109.041138 
M240.549850,1235.951172 
	C246.636673,1223.605225 246.246323,1210.773682 242.365692,1198.117065 
	C235.450867,1175.564453 219.696976,1159.195190 202.920792,1143.653076 
	C200.168915,1141.103638 197.379578,1138.497070 195.142471,1135.515503 
	C192.546829,1132.056152 193.546753,1129.176636 197.723312,1128.077881 
	C201.793015,1127.007202 206.045059,1126.168945 210.232819,1126.092529 
	C223.677628,1125.847046 237.129730,1126.001221 250.710083,1126.001221 
	C250.710083,1123.120361 250.710083,1120.734009 250.710083,1117.999146 
	C234.292007,1117.999146 218.157547,1117.798462 202.034195,1118.133789 
	C197.766998,1118.222412 193.369965,1119.525513 189.325256,1121.048340 
	C183.737610,1123.152222 181.461029,1126.858154 183.222931,1132.283203 
	C184.794022,1137.120850 187.333694,1142.024902 190.672470,1145.820557 
	C196.013657,1151.892700 202.534409,1156.907959 208.262222,1162.662964 
	C219.929565,1174.385864 229.798264,1187.282715 234.279099,1203.640625 
	C237.136642,1214.072510 236.807785,1224.200684 230.943024,1233.404785 
	C223.373535,1245.284302 211.354675,1250.466064 198.030579,1250.792847 
	C170.225494,1251.474609 142.392029,1250.999146 114.570221,1250.999146 
	C112.799553,1250.999146 111.028893,1250.999146 109.374588,1250.999146 
	C109.374588,1254.028564 109.374588,1256.416992 109.374588,1259.001587 
	C139.722244,1259.001587 169.697235,1259.033813 199.671967,1258.957397 
	C203.108841,1258.948608 206.664108,1258.788330 209.958954,1257.919189 
	C222.616196,1254.580444 234.106949,1249.404175 240.549850,1235.951172 
M493.018646,1555.681763 
	C492.089783,1547.726440 483.595123,1541.477417 476.589569,1541.838013 
	C465.124573,1542.427856 453.607086,1541.997559 442.111725,1541.997559 
	C436.844940,1541.997559 431.578186,1541.997559 426.374878,1541.997559 
	C426.374878,1556.666260 426.374878,1570.713501 426.374878,1584.955811 
	C443.566376,1584.955811 460.384216,1585.132446 477.194153,1584.845215 
	C482.068512,1584.761963 487.246796,1583.694092 490.251129,1579.155518 
	C494.870605,1572.177002 494.862915,1564.420166 493.018646,1555.681763 
M369.000153,1558.520996 
	C369.000153,1554.755493 369.000153,1550.990112 369.000153,1547.207764 
	C365.726379,1547.207764 363.119812,1547.207764 360.262512,1547.207764 
	C360.262512,1578.130127 360.262512,1608.844482 360.262512,1639.693115 
	C363.245087,1639.693115 365.960938,1639.693115 369.000153,1639.693115 
	C369.000153,1612.763062 369.000153,1586.138306 369.000153,1558.520996 
z"/>
<path fill="#C2C016" opacity="1.000000" stroke="none" 
	d="
M720.999023,1534.999756 
	C720.999023,1541.802979 720.999023,1548.106201 720.999023,1554.929321 
	C687.265991,1554.929321 653.875305,1554.929321 620.244629,1554.929321 
	C620.244629,1562.052856 620.244629,1568.657593 620.244629,1575.790039 
	C641.588745,1575.790039 662.981506,1575.790039 684.684875,1575.790039 
	C684.684875,1587.366089 684.684875,1598.421021 684.684875,1609.826172 
	C663.311707,1609.826172 642.039551,1609.826172 620.384521,1609.826172 
	C620.384521,1616.882202 620.384521,1623.607422 620.384521,1630.862793 
	C656.331543,1630.862793 692.388489,1630.862793 728.849731,1630.862793 
	C728.849731,1648.942383 728.849731,1666.505859 728.849731,1684.069458 
	C729.123840,1684.115356 729.397888,1684.161255 729.671997,1684.207153 
	C733.369385,1673.005371 737.071289,1661.805176 740.763367,1650.601685 
	C754.659302,1608.435181 768.554565,1566.268677 782.443787,1524.099976 
	C784.944824,1516.506836 787.640686,1508.966309 789.781982,1501.272217 
	C790.553955,1498.498291 791.804993,1497.967529 794.262329,1497.971313 
	C823.760681,1498.015991 853.259338,1498.045532 882.757324,1497.934448 
	C885.912415,1497.922485 886.325012,1499.649170 887.107727,1501.999146 
	C899.327332,1538.685425 911.639587,1575.341187 923.955078,1611.995605 
	C932.160889,1636.417969 940.407043,1660.826904 948.623291,1685.245728 
	C948.826904,1685.851196 948.891052,1686.503540 949.112732,1687.585449 
	C924.833191,1687.585449 900.812012,1687.585449 876.394775,1687.585449 
	C873.008545,1677.808105 869.466736,1667.724121 866.048584,1657.598633 
	C865.319092,1655.437500 864.720093,1653.910767 861.847778,1653.933472 
	C844.522034,1654.070068 827.194580,1654.001221 809.556396,1654.001221 
	C805.546509,1665.285400 801.545105,1676.545776 797.544006,1687.805420 
	C717.449646,1687.805420 637.503052,1687.805420 557.279175,1687.805420 
	C557.279175,1624.677002 557.279175,1561.742310 557.279175,1498.403442 
	C611.524597,1498.403442 665.910767,1498.403442 720.999023,1498.403442 
	C720.999023,1510.319458 720.999023,1522.409668 720.999023,1534.999756 
M876.915955,1658.704590 
	C879.376770,1665.748047 881.837646,1672.791504 884.255066,1679.710693 
	C901.967224,1679.710693 919.379700,1679.710693 937.054565,1679.710693 
	C936.842041,1678.596191 936.780884,1677.782471 936.530273,1677.032104 
	C918.084900,1621.788818 899.579529,1566.565308 881.278015,1511.274414 
	C880.191162,1507.990845 878.983093,1506.905029 875.574097,1506.924683 
	C851.248596,1507.065186 826.921692,1507.050537 802.595947,1506.938843 
	C799.350769,1506.923950 797.938110,1507.691895 796.804504,1511.119019 
	C781.705872,1556.766724 766.333130,1602.323853 751.069275,1647.916992 
	C747.572937,1658.360474 744.230164,1668.855591 740.599854,1679.992432 
	C757.148071,1679.992432 773.083618,1680.048706 789.016296,1679.861572 
	C790.045593,1679.849731 791.524536,1678.142090 791.995178,1676.916260 
	C795.433838,1667.960449 798.893372,1658.999023 801.844238,1649.876953 
	C802.872559,1646.697998 804.304749,1645.921387 807.364868,1645.941772 
	C825.025635,1646.060181 842.687683,1645.999634 860.349243,1645.999634 
	C872.704651,1645.999634 872.704651,1645.999512 876.915955,1658.704590 
M640.500000,1585.000000 
	C630.744019,1585.000000 620.987976,1585.000000 611.399536,1585.000000 
	C611.399536,1571.910767 611.399536,1559.523071 611.399536,1546.809692 
	C645.060730,1546.809692 678.324341,1546.809692 711.687317,1546.809692 
	C711.687317,1533.418335 711.687317,1520.365967 711.687317,1507.348389 
	C662.997131,1507.348389 614.620544,1507.348389 566.381104,1507.348389 
	C566.381104,1565.072388 566.381104,1622.446899 566.381104,1679.760864 
	C617.687073,1679.760864 668.611694,1679.760864 719.711548,1679.760864 
	C719.711548,1666.468628 719.711548,1653.416626 719.711548,1639.852783 
	C683.377686,1639.852783 647.328674,1639.852783 611.381226,1639.852783 
	C611.381226,1626.948486 611.381226,1614.561523 611.381226,1601.842407 
	C633.027100,1601.842407 654.294617,1601.842407 675.698975,1601.842407 
	C675.698975,1596.110352 675.698975,1590.723633 675.698975,1585.000000 
	C664.100342,1585.000000 652.800171,1585.000000 640.500000,1585.000000 
z"/>
<path fill="#C2C016" opacity="1.000000" stroke="none" 
	d="
M1159.001831,1204.000000 
	C1159.001831,1158.866821 1159.001831,1114.233643 1159.001831,1069.300537 
	C1235.393433,1069.300537 1311.441895,1069.300537 1387.744751,1069.300537 
	C1387.744751,1088.073364 1387.744751,1106.674194 1387.744751,1125.801514 
	C1370.397583,1125.801514 1353.003662,1125.801514 1335.093506,1125.801514 
	C1335.093506,1170.377686 1335.093506,1214.433228 1335.093506,1258.742920 
	C1314.303955,1258.742920 1294.033691,1258.742920 1273.240479,1258.742920 
	C1273.240479,1214.770508 1273.240479,1170.714966 1273.240479,1126.330811 
	C1256.000610,1126.330811 1239.279175,1126.330811 1222.208008,1126.330811 
	C1222.208008,1170.319946 1222.208008,1214.255493 1222.208008,1258.595337 
	C1201.146973,1258.595337 1180.426025,1258.595337 1159.001831,1258.595337 
	C1159.001831,1240.676880 1159.001831,1222.588501 1159.001831,1204.000000 
M1363.496094,1117.999756 
	C1368.587891,1117.999756 1373.679688,1117.999756 1378.603027,1117.999756 
	C1378.603027,1104.246216 1378.603027,1091.191772 1378.603027,1078.255127 
	C1328.613770,1078.255127 1279.021606,1078.255127 1229.304565,1078.255127 
	C1229.304565,1091.564941 1229.304565,1104.617188 1229.304565,1118.187256 
	C1246.993774,1118.187256 1264.384033,1118.187256 1282.271606,1118.187256 
	C1282.271606,1162.752808 1282.271606,1206.799561 1282.271606,1250.737427 
	C1297.384521,1250.737427 1311.985962,1250.737427 1327.092163,1250.737427 
	C1327.092163,1206.430908 1327.092163,1162.384033 1327.092163,1117.999756 
	C1339.231201,1117.999756 1350.864502,1117.999756 1363.496094,1117.999756 
M1213.001099,1152.500000 
	C1213.001099,1127.749146 1213.001099,1102.998169 1213.001099,1078.393555 
	C1197.587891,1078.393555 1182.866577,1078.393555 1168.255859,1078.393555 
	C1168.255859,1136.048828 1168.255859,1193.309570 1168.255859,1250.694458 
	C1183.232788,1250.694458 1197.952271,1250.694458 1213.001099,1250.694458 
	C1213.001099,1218.093262 1213.001099,1185.796631 1213.001099,1152.500000 
z"/>
<path fill="#C2C016" opacity="1.000000" stroke="none" 
	d="
M1394.001953,1228.000000 
	C1394.001953,1174.877197 1394.001953,1122.254272 1394.001953,1069.315918 
	C1448.688599,1069.315918 1503.063843,1069.315918 1557.719238,1069.315918 
	C1557.719238,1088.101440 1557.719238,1106.818481 1557.719238,1125.874023 
	C1524.257446,1125.874023 1490.993408,1125.874023 1457.365234,1125.874023 
	C1457.365234,1132.921265 1457.365234,1139.644043 1457.365234,1146.890991 
	C1478.692993,1146.890991 1500.081543,1146.890991 1521.731934,1146.890991 
	C1521.731934,1158.339233 1521.731934,1169.275146 1521.731934,1180.730713 
	C1500.467529,1180.730713 1479.078613,1180.730713 1457.346680,1180.730713 
	C1457.346680,1187.960449 1457.346680,1194.682251 1457.346680,1201.922729 
	C1493.395264,1201.922729 1529.444824,1201.922729 1565.745117,1201.922729 
	C1565.745117,1221.033447 1565.745117,1239.633301 1565.745117,1258.617188 
	C1508.782715,1258.617188 1451.740845,1258.617188 1394.001953,1258.617188 
	C1394.001953,1248.678589 1394.001953,1238.589355 1394.001953,1228.000000 
M1532.500000,1251.000244 
	C1540.590454,1251.000244 1548.681030,1251.000244 1556.603149,1251.000244 
	C1556.603149,1237.246460 1556.603149,1224.192017 1556.603149,1210.811768 
	C1520.277710,1210.811768 1484.348267,1210.811768 1448.313721,1210.811768 
	C1448.313721,1198.087402 1448.313721,1185.702026 1448.313721,1172.801758 
	C1470.009766,1172.801758 1491.398315,1172.801758 1512.767334,1172.801758 
	C1512.767334,1167.010376 1512.767334,1161.739380 1512.767334,1155.956543 
	C1491.152954,1155.956543 1469.764404,1155.956543 1448.332031,1155.956543 
	C1448.332031,1143.049561 1448.332031,1130.663696 1448.332031,1117.768799 
	C1482.043335,1117.768799 1515.426758,1117.768799 1548.755371,1117.768799 
	C1548.755371,1104.318726 1548.755371,1091.383789 1548.755371,1078.280029 
	C1500.133789,1078.280029 1451.757324,1078.280029 1403.312866,1078.280029 
	C1403.312866,1135.935547 1403.312866,1193.309937 1403.312866,1251.000244 
	C1446.250000,1251.000244 1488.875000,1251.000244 1532.500000,1251.000244 
z"/>
<path fill="#C2C016" opacity="1.000000" stroke="none" 
	d="
M807.999634,1239.999512 
	C807.999634,1246.468262 807.999634,1252.437256 807.999634,1258.700684 
	C750.614685,1258.700684 693.573425,1258.700684 636.266846,1258.700684 
	C636.266846,1195.545288 636.266846,1132.505493 636.266846,1069.232666 
	C690.737671,1069.232666 744.995117,1069.232666 799.625793,1069.232666 
	C799.625793,1087.910889 799.625793,1106.629028 799.625793,1125.864014 
	C766.328003,1125.864014 732.944153,1125.864014 699.281860,1125.864014 
	C699.281860,1133.097046 699.281860,1139.817383 699.281860,1146.880859 
	C720.743835,1146.880859 742.011414,1146.880859 763.638489,1146.880859 
	C763.638489,1158.268188 763.638489,1169.322266 763.638489,1180.897339 
	C742.298096,1180.897339 720.909302,1180.897339 699.263367,1180.897339 
	C699.263367,1188.011108 699.263367,1194.615234 699.263367,1201.735840 
	C735.206604,1201.735840 771.256226,1201.735840 807.999634,1201.735840 
	C807.999634,1214.657715 807.999634,1227.078613 807.999634,1239.999512 
M791.424438,1211.000000 
	C757.685059,1211.000000 723.945618,1211.000000 690.242432,1211.000000 
	C690.242432,1197.994873 690.242432,1185.726807 690.242432,1172.943359 
	C711.865295,1172.943359 733.254272,1172.943359 754.661011,1172.943359 
	C754.661011,1167.031006 754.661011,1161.642090 754.661011,1155.744141 
	C732.936584,1155.744141 711.547729,1155.744141 690.262207,1155.744141 
	C690.262207,1142.954712 690.262207,1130.686157 690.262207,1117.907715 
	C723.902832,1117.907715 757.286865,1117.907715 790.647583,1117.907715 
	C790.647583,1104.336792 790.647583,1091.283447 790.647583,1078.389160 
	C741.915955,1078.389160 693.538086,1078.389160 645.246582,1078.389160 
	C645.246582,1136.036743 645.246582,1193.294312 645.246582,1250.717529 
	C696.536743,1250.717529 747.580017,1250.717529 798.667725,1250.717529 
	C798.667725,1237.380005 798.667725,1224.327515 798.667725,1211.000000 
	C796.362732,1211.000000 794.382996,1211.000000 791.424438,1211.000000 
z"/>
<path fill="#C2C016" opacity="1.000000" stroke="none" 
	d="
M1143.003906,1684.789795 
	C1143.002441,1622.370117 1143.002441,1560.433472 1143.002441,1498.248779 
	C1197.706299,1498.248779 1251.964966,1498.248779 1306.611450,1498.248779 
	C1306.611450,1516.881592 1306.611450,1535.600586 1306.611450,1554.837769 
	C1273.354858,1554.837769 1239.970215,1554.837769 1206.294434,1554.837769 
	C1206.294434,1562.070801 1206.294434,1568.791748 1206.294434,1575.857178 
	C1227.719482,1575.857178 1248.987671,1575.857178 1270.626953,1575.857178 
	C1270.626953,1587.244263 1270.626953,1598.298706 1270.626953,1609.875732 
	C1249.320068,1609.875732 1227.931030,1609.875732 1206.273926,1609.875732 
	C1206.273926,1616.991211 1206.273926,1623.594971 1206.273926,1630.716797 
	C1242.187012,1630.716797 1278.237427,1630.716797 1314.642822,1630.716797 
	C1314.642822,1649.945312 1314.642822,1668.663696 1314.642822,1687.734619 
	C1313.257935,1687.820923 1311.817993,1687.988647 1310.378052,1687.989014 
	C1256.227783,1688.002319 1202.077637,1688.015259 1147.927490,1687.936523 
	C1146.061279,1687.933838 1142.786621,1689.536987 1143.003906,1684.789795 
M1255.500000,1680.000244 
	C1272.252075,1680.000244 1289.004150,1680.000244 1305.606445,1680.000244 
	C1305.606445,1666.253052 1305.606445,1653.198730 1305.606445,1639.818237 
	C1269.284180,1639.818237 1233.354736,1639.818237 1197.310425,1639.818237 
	C1197.310425,1627.093994 1197.310425,1614.708618 1197.310425,1601.808105 
	C1219.003174,1601.808105 1240.391968,1601.808105 1261.770508,1601.808105 
	C1261.770508,1596.016357 1261.770508,1590.745850 1261.770508,1584.963013 
	C1240.159546,1584.963013 1218.770996,1584.963013 1197.328735,1584.963013 
	C1197.328735,1572.056030 1197.328735,1559.670410 1197.328735,1546.775269 
	C1231.036865,1546.775269 1264.420288,1546.775269 1297.758667,1546.775269 
	C1297.758667,1533.325195 1297.758667,1520.390381 1297.758667,1507.276733 
	C1249.140381,1507.276733 1200.763916,1507.276733 1152.309692,1507.276733 
	C1152.309692,1564.929077 1152.309692,1622.303467 1152.309692,1680.000244 
	C1186.578857,1680.000244 1220.539429,1680.000244 1255.500000,1680.000244 
z"/>
<path fill="#C2C016" opacity="1.000000" stroke="none" 
	d="
M942.949524,1605.187744 
	C942.610107,1596.799316 941.271729,1588.732544 942.273865,1580.968018 
	C943.449402,1571.859741 945.957886,1562.755737 949.140259,1554.110718 
	C954.997620,1538.198486 966.018799,1526.210693 980.188049,1517.046997 
	C992.683411,1508.965820 1006.300476,1503.735840 1020.895935,1501.004517 
	C1050.857666,1495.397827 1081.128540,1498.976807 1111.247437,1498.036865 
	C1119.231812,1497.787598 1127.230713,1497.999023 1135.611328,1497.999023 
	C1135.611328,1516.876465 1135.611328,1535.596436 1135.611328,1555.001099 
	C1133.990479,1555.001099 1132.231812,1555.001099 1130.473145,1555.001099 
	C1113.311035,1555.001099 1096.137817,1554.621094 1078.990356,1555.123169 
	C1065.680420,1555.512939 1052.305054,1556.322266 1039.138916,1558.204590 
	C1027.023560,1559.936768 1016.964905,1565.525635 1012.844849,1578.460815 
	C1008.929810,1590.752319 1010.207581,1611.925537 1019.388428,1619.967407 
	C1025.851562,1625.628296 1033.575562,1627.765503 1041.713745,1628.983887 
	C1068.156006,1632.942505 1094.774780,1630.213135 1121.302734,1630.980713 
	C1125.953003,1631.115356 1130.610474,1630.999756 1135.631958,1630.999756 
	C1135.631958,1649.920288 1135.631958,1668.639648 1135.631958,1688.001099 
	C1133.942383,1688.001099 1132.177856,1688.001221 1130.413452,1688.001099 
	C1101.920898,1688.000854 1073.427246,1688.161377 1044.936279,1687.953369 
	C1018.854675,1687.762939 994.685486,1680.674316 974.208862,1664.338013 
	C958.134583,1651.513794 947.805847,1634.472900 944.027649,1613.915283 
	C943.526062,1611.186279 943.325745,1608.401978 942.949524,1605.187744 
M1118.445435,1507.000000 
	C1097.112061,1507.000000 1075.765015,1506.538086 1054.450684,1507.175171 
	C1041.870483,1507.551392 1029.109253,1508.585327 1016.839111,1511.226440 
	C990.700073,1516.852783 970.578430,1531.227051 958.664734,1555.794556 
	C949.849731,1573.972290 949.129089,1593.017578 952.966980,1612.498657 
	C957.686157,1636.453247 971.555481,1653.478149 992.576782,1665.229614 
	C1011.988770,1676.081177 1033.268311,1679.254272 1054.944214,1679.860962 
	C1077.260010,1680.485596 1099.606812,1680.004150 1121.940063,1679.990112 
	C1123.542358,1679.989136 1125.144531,1679.852173 1126.631226,1679.783813 
	C1126.631226,1666.287476 1126.631226,1653.231567 1126.631226,1640.000000 
	C1106.589722,1640.000000 1086.916016,1640.474731 1067.279297,1639.826660 
	C1055.015259,1639.421875 1042.703369,1637.920044 1030.603149,1635.816772 
	C1018.515991,1633.715820 1010.267456,1626.497070 1005.703003,1614.599121 
	C1001.270813,1603.045776 1001.110291,1591.467529 1003.213867,1579.697266 
	C1005.740845,1565.558472 1015.107971,1557.313843 1028.025513,1552.468872 
	C1038.589355,1548.506592 1049.642822,1547.195312 1060.789062,1547.066040 
	C1080.953003,1546.831909 1101.121460,1546.999146 1121.288086,1546.998901 
	C1123.066284,1546.998901 1124.844360,1546.998901 1126.685059,1546.998901 
	C1126.685059,1533.396606 1126.685059,1520.342041 1126.685059,1507.000000 
	C1124.046875,1507.000000 1121.736084,1507.000000 1118.445435,1507.000000 
z"/>
<path fill="#C2C016" opacity="1.000000" stroke="none" 
	d="
M408.949585,1072.008057 
	C429.725342,1134.327393 450.454865,1196.232056 471.349030,1258.628418 
	C446.792816,1258.628418 422.753784,1258.628418 398.399170,1258.628418 
	C394.987366,1248.749146 391.445648,1238.657104 388.044891,1228.517822 
	C387.301941,1226.302734 386.618530,1224.904297 383.767456,1224.928467 
	C366.444733,1225.075562 349.120117,1225.001831 331.481506,1225.001831 
	C327.506073,1236.327393 323.547943,1247.603516 319.604492,1258.837891 
	C296.692841,1258.837891 274.056335,1258.837891 250.695847,1258.837891 
	C253.449524,1250.203857 256.020966,1241.889282 258.749725,1233.626709 
	C274.057068,1187.277344 289.413147,1140.944092 304.723724,1094.595703 
	C307.128387,1087.316284 309.633087,1080.053833 311.596222,1072.652222 
	C312.444855,1069.452393 313.995392,1068.945923 316.838989,1068.953247 
	C346.001862,1069.028076 375.165161,1068.960083 404.327423,1069.109741 
	C405.856934,1069.117554 407.378235,1070.728760 408.949585,1072.008057 
M323.930878,1221.265625 
	C324.187653,1218.131958 325.604401,1216.888306 329.013000,1216.916382 
	C349.338226,1217.083496 369.665833,1217.056519 389.991730,1216.938110 
	C393.098846,1216.920044 394.514709,1217.784790 395.562683,1220.916870 
	C398.947601,1231.033081 402.818024,1240.986938 406.421814,1250.787109 
	C424.168732,1250.787109 441.460907,1250.787109 459.063965,1250.787109 
	C458.779785,1249.593750 458.628967,1248.649658 458.331268,1247.754517 
	C439.900757,1192.331543 421.417816,1136.925781 403.121033,1081.458740 
	C402.069489,1078.271118 400.437469,1077.959961 397.736450,1077.966309 
	C373.244720,1078.024170 348.752563,1078.050415 324.261200,1077.937500 
	C321.130920,1077.923096 319.880127,1078.831421 318.842499,1081.962402 
	C302.695740,1130.684082 286.337646,1179.335449 270.059570,1228.013550 
	C267.562927,1235.479614 265.221985,1242.997559 262.647125,1250.994385 
	C279.225616,1250.994385 295.037384,1251.050537 310.846497,1250.870483 
	C311.925385,1250.858154 313.509460,1249.275391 313.967987,1248.081177 
	C317.288422,1239.432495 320.379639,1230.695923 323.930878,1221.265625 
z"/>
<path fill="#C2C016" opacity="1.000000" stroke="none" 
	d="
M814.001953,1233.000000 
	C814.001953,1178.222656 814.001953,1123.945312 814.001953,1069.334106 
	C834.987488,1069.334106 855.699890,1069.334106 876.909790,1069.334106 
	C876.909790,1113.391113 876.909790,1157.428589 876.909790,1201.977295 
	C911.441345,1201.977295 945.482605,1201.977295 979.759155,1201.977295 
	C979.759155,1221.083252 979.759155,1239.677246 979.759155,1258.636230 
	C924.755249,1258.636230 869.724976,1258.636230 814.001953,1258.636230 
	C814.001953,1250.343750 814.001953,1241.921875 814.001953,1233.000000 
M908.500000,1211.000000 
	C895.082886,1211.000000 881.665710,1211.000000 867.764282,1211.000000 
	C867.764282,1166.278198 867.764282,1122.241333 867.764282,1078.232422 
	C852.669495,1078.232422 838.071838,1078.232422 823.246582,1078.232422 
	C823.246582,1135.827148 823.246582,1193.188965 823.246582,1250.733765 
	C872.525757,1250.733765 921.558044,1250.733765 970.688782,1250.733765 
	C970.688782,1237.416016 970.688782,1224.366455 970.688782,1211.000000 
	C950.086060,1211.000000 929.793030,1211.000000 908.500000,1211.000000 
z"/>
<path fill="#C2C016" opacity="1.000000" stroke="none" 
	d="
M1048.999878,1161.000000 
	C1048.999878,1174.796875 1048.999878,1188.093628 1048.999878,1201.901855 
	C1083.365234,1201.901855 1117.406494,1201.901855 1151.721558,1201.901855 
	C1151.721558,1221.006958 1151.721558,1239.601440 1151.721558,1258.598633 
	C1096.831055,1258.598633 1041.800537,1258.598633 986.385620,1258.598633 
	C986.385620,1195.798340 986.385620,1132.771606 986.385620,1069.371948 
	C1006.910339,1069.371948 1027.623413,1069.371948 1048.999878,1069.371948 
	C1048.999878,1099.684937 1048.999878,1130.092407 1048.999878,1161.000000 
M1074.500000,1251.000122 
	C1097.244751,1251.000122 1119.989502,1251.000122 1142.619873,1251.000122 
	C1142.619873,1237.275391 1142.619873,1224.224365 1142.619873,1210.855957 
	C1108.318359,1210.855957 1074.395752,1210.855957 1039.980347,1210.855957 
	C1039.980347,1166.495850 1039.980347,1122.458984 1039.980347,1078.301025 
	C1024.767822,1078.301025 1010.052551,1078.301025 995.315186,1078.301025 
	C995.315186,1135.965088 995.315186,1193.327026 995.315186,1251.000122 
	C1021.586121,1251.000122 1047.543091,1251.000122 1074.500000,1251.000122 
z"/>
<path fill="#C2C016" opacity="1.000000" stroke="none" 
	d="
M515.000000,1147.000000 
	C515.000000,1139.865112 515.000000,1133.230225 515.000000,1126.081177 
	C497.610748,1126.081177 480.553406,1126.081177 463.252136,1126.081177 
	C463.252136,1106.965820 463.252136,1088.366211 463.252136,1069.382690 
	C518.545959,1069.382690 573.917908,1069.382690 629.644653,1069.382690 
	C629.644653,1087.985718 629.644653,1106.700562 629.644653,1125.937500 
	C612.257324,1125.937500 594.866882,1125.937500 577.153687,1125.937500 
	C577.153687,1170.381714 577.153687,1214.308594 577.153687,1258.617432 
	C556.443787,1258.617432 536.059509,1258.617432 515.000000,1258.617432 
	C515.000000,1221.656372 515.000000,1184.578125 515.000000,1147.000000 
M517.406128,1117.999756 
	C519.504700,1117.999756 521.603271,1117.999756 524.202393,1117.999756 
	C524.202393,1162.682739 524.202393,1206.730347 524.202393,1250.770996 
	C539.316223,1250.770996 553.917297,1250.770996 569.026245,1250.770996 
	C569.026245,1206.497803 569.026245,1162.450073 569.026245,1117.886719 
	C586.586548,1117.886719 603.644592,1117.886719 620.634277,1117.886719 
	C620.634277,1104.310303 620.634277,1091.256470 620.634277,1078.402466 
	C570.556946,1078.402466 520.846252,1078.402466 471.275085,1078.402466 
	C471.275085,1091.742554 471.275085,1104.678101 471.275085,1117.999756 
	C486.506165,1117.999756 501.465118,1117.999756 517.406128,1117.999756 
z"/>
<path fill="#C2C016" opacity="1.000000" stroke="none" 
	d="
M449.000610,1626.000122 
	C442.531464,1626.000122 436.562225,1626.000122 430.077759,1626.000122 
	C430.077759,1646.725952 430.077759,1667.116333 430.077759,1687.750122 
	C406.628510,1687.750122 383.697418,1687.750122 360.383728,1687.750122 
	C360.383728,1685.431641 360.383728,1683.042847 360.383728,1680.134033 
	C380.306458,1680.134033 400.372070,1680.134033 420.952576,1680.134033 
	C420.952576,1658.910034 420.952576,1638.186523 420.952576,1617.000244 
	C423.253143,1617.000244 425.040405,1617.000244 426.827637,1617.000244 
	C445.822693,1617.000244 464.826599,1617.358643 483.810089,1616.890381 
	C499.927887,1616.492920 514.173828,1610.283813 525.916138,1599.378662 
	C534.853271,1591.078979 539.113525,1580.315308 540.146484,1567.965210 
	C541.196228,1555.412842 537.960083,1544.020142 532.059387,1533.429199 
	C525.172424,1521.068359 513.778442,1513.675171 500.420776,1510.245239 
	C491.788757,1508.028687 482.600861,1507.221436 473.649414,1507.137939 
	C437.828522,1506.803955 402.002655,1507.000000 366.178650,1507.000000 
	C364.362366,1507.000000 362.546112,1507.000000 360.366333,1507.000000 
	C360.366333,1504.041138 360.366333,1501.323120 360.366333,1497.999146 
	C362.086792,1497.999146 363.860687,1497.999146 365.634583,1497.999146 
	C404.291199,1497.999146 442.957397,1497.488403 481.600403,1498.213623 
	C501.071472,1498.578857 519.065918,1504.793091 532.925537,1519.514404 
	C541.978638,1529.130615 546.883240,1540.927734 547.846375,1553.967773 
	C548.506775,1562.909546 548.448486,1572.049072 547.382019,1580.940796 
	C545.636780,1595.492188 535.580933,1604.875122 524.348511,1612.627319 
	C511.734497,1621.333008 497.550293,1626.076782 481.991974,1626.009277 
	C471.161652,1625.962280 460.330963,1626.000122 449.000610,1626.000122 
z"/>
<path fill="#C1BF16" opacity="1.000000" stroke="none" 
	d="
M121.020660,1109.491455 
	C119.511063,1126.899292 127.357613,1140.471558 137.491745,1152.766602 
	C145.802948,1162.850098 155.266052,1171.978394 164.089081,1181.648193 
	C168.066162,1186.006958 171.714630,1190.535889 172.090820,1196.976318 
	C172.368118,1201.723267 170.277603,1204.863647 166.251450,1206.151245 
	C159.950180,1208.166504 153.460922,1210.396362 146.948532,1210.776855 
	C134.529846,1211.502441 122.038689,1210.987427 109.291420,1210.987427 
	C109.291420,1208.016602 109.291420,1205.420288 109.291420,1201.999634 
	C111.385857,1201.999634 113.628387,1201.999634 115.870918,1201.999634 
	C127.032692,1201.999512 138.194702,1202.035889 149.355988,1201.961670 
	C151.117722,1201.949951 153.025711,1201.778198 154.603271,1201.083618 
	C157.421249,1199.843018 160.038879,1198.147217 162.740295,1196.641846 
	C161.139450,1193.909058 159.999100,1190.726440 157.851227,1188.528198 
	C151.476578,1182.003906 144.329163,1176.212769 138.169724,1169.505127 
	C126.576630,1156.880371 116.701584,1143.130615 112.491234,1126.026367 
	C107.925507,1107.478516 114.608788,1084.402832 130.638657,1075.231567 
	C136.515427,1071.869263 143.793243,1069.398193 150.482147,1069.276611 
	C183.290115,1068.679077 216.114990,1069.009155 248.933899,1069.022339 
	C249.411865,1069.022583 249.889771,1069.161865 250.679596,1069.285034 
	C250.679596,1072.012329 250.679596,1074.731445 250.679596,1078.000000 
	C248.847672,1078.000000 247.067581,1078.000000 245.287476,1078.000000 
	C216.133591,1078.000000 186.970871,1078.434937 157.828979,1077.843628 
	C139.120102,1077.463989 125.526489,1089.033569 121.952621,1106.231323 
	C121.753365,1107.190063 121.345901,1108.105469 121.020660,1109.491455 
z"/>
<path fill="#C1BF16" opacity="1.000000" stroke="none" 
	d="
M240.315918,1236.254883 
	C234.106949,1249.404175 222.616196,1254.580444 209.958954,1257.919189 
	C206.664108,1258.788330 203.108841,1258.948608 199.671967,1258.957397 
	C169.697235,1259.033813 139.722244,1259.001587 109.374588,1259.001587 
	C109.374588,1256.416992 109.374588,1254.028564 109.374588,1250.999146 
	C111.028893,1250.999146 112.799553,1250.999146 114.570221,1250.999146 
	C142.392029,1250.999146 170.225494,1251.474609 198.030579,1250.792847 
	C211.354675,1250.466064 223.373535,1245.284302 230.943024,1233.404785 
	C236.807785,1224.200684 237.136642,1214.072510 234.279099,1203.640625 
	C229.798264,1187.282715 219.929565,1174.385864 208.262222,1162.662964 
	C202.534409,1156.907959 196.013657,1151.892700 190.672470,1145.820557 
	C187.333694,1142.024902 184.794022,1137.120850 183.222931,1132.283203 
	C181.461029,1126.858154 183.737610,1123.152222 189.325256,1121.048340 
	C193.369965,1119.525513 197.766998,1118.222412 202.034195,1118.133789 
	C218.157547,1117.798462 234.292007,1117.999146 250.710083,1117.999146 
	C250.710083,1120.734009 250.710083,1123.120361 250.710083,1126.001221 
	C237.129730,1126.001221 223.677628,1125.847046 210.232819,1126.092529 
	C206.045059,1126.168945 201.793015,1127.007202 197.723312,1128.077881 
	C193.546753,1129.176636 192.546829,1132.056152 195.142471,1135.515503 
	C197.379578,1138.497070 200.168915,1141.103638 202.920792,1143.653076 
	C219.696976,1159.195190 235.450867,1175.564453 242.365692,1198.117065 
	C246.246323,1210.773682 246.636673,1223.605225 240.315918,1236.254883 
z"/>
<path fill="#C1BF16" opacity="1.000000" stroke="none" 
	d="
M493.069427,1556.108154 
	C494.862915,1564.420166 494.870605,1572.177002 490.251129,1579.155518 
	C487.246796,1583.694092 482.068512,1584.761963 477.194153,1584.845215 
	C460.384216,1585.132446 443.566376,1584.955811 426.374878,1584.955811 
	C426.374878,1570.713501 426.374878,1556.666260 426.374878,1541.997559 
	C431.578186,1541.997559 436.844940,1541.997559 442.111725,1541.997559 
	C453.607086,1541.997559 465.124573,1542.427856 476.589569,1541.838013 
	C483.595123,1541.477417 492.089783,1547.726440 493.069427,1556.108154 
M484.967529,1568.814819 
	C484.977814,1566.651001 485.041504,1564.485962 484.988617,1562.323730 
	C484.818298,1555.359009 480.440674,1551.026611 473.561157,1550.990967 
	C469.566345,1550.970337 465.571289,1550.988403 461.576355,1550.988525 
	C452.819519,1550.988647 444.062683,1550.988525 435.354401,1550.988525 
	C435.354401,1559.675171 435.354401,1567.725464 435.354401,1576.001221 
	C448.508057,1576.001221 461.310455,1575.920288 474.110962,1576.041870 
	C479.112854,1576.089355 482.650696,1574.138672 484.967529,1568.814819 
z"/>
<path fill="#C2C015" opacity="1.000000" stroke="none" 
	d="
M369.000153,1559.017334 
	C369.000153,1586.138306 369.000153,1612.763062 369.000153,1639.693115 
	C365.960938,1639.693115 363.245087,1639.693115 360.262512,1639.693115 
	C360.262512,1608.844482 360.262512,1578.130127 360.262512,1547.207764 
	C363.119812,1547.207764 365.726379,1547.207764 369.000153,1547.207764 
	C369.000153,1550.990112 369.000153,1554.755493 369.000153,1559.017334 
z"/>
<path fill="#000000" opacity="1.000000" stroke="none" 
	d="
M876.711060,1658.360840 
	C872.704651,1645.999512 872.704651,1645.999634 860.349243,1645.999634 
	C842.687683,1645.999634 825.025635,1646.060181 807.364868,1645.941772 
	C804.304749,1645.921387 802.872559,1646.697998 801.844238,1649.876953 
	C798.893372,1658.999023 795.433838,1667.960449 791.995178,1676.916260 
	C791.524536,1678.142090 790.045593,1679.849731 789.016296,1679.861572 
	C773.083618,1680.048706 757.148071,1679.992432 740.599854,1679.992432 
	C744.230164,1668.855591 747.572937,1658.360474 751.069275,1647.916992 
	C766.333130,1602.323853 781.705872,1556.766724 796.804504,1511.119019 
	C797.938110,1507.691895 799.350769,1506.923950 802.595947,1506.938843 
	C826.921692,1507.050537 851.248596,1507.065186 875.574097,1506.924683 
	C878.983093,1506.905029 880.191162,1507.990845 881.278015,1511.274414 
	C899.579529,1566.565308 918.084900,1621.788818 936.530273,1677.032104 
	C936.780884,1677.782471 936.842041,1678.596191 937.054565,1679.710693 
	C919.379700,1679.710693 901.967224,1679.710693 884.255066,1679.710693 
	C881.837646,1672.791504 879.376770,1665.748047 876.711060,1658.360840 
M821.498230,1582.001953 
	C817.319336,1593.188110 813.140381,1604.374390 808.888000,1615.757324 
	C828.223694,1615.757324 846.964417,1615.757324 866.152344,1615.757324 
	C857.029236,1589.398560 848.029968,1563.397705 838.546936,1535.998901 
	C832.651306,1552.072754 827.286438,1566.699585 821.498230,1582.001953 
z"/>
<path fill="#000000" opacity="1.000000" stroke="none" 
	d="
M641.000000,1585.000000 
	C652.800171,1585.000000 664.100342,1585.000000 675.698975,1585.000000 
	C675.698975,1590.723633 675.698975,1596.110352 675.698975,1601.842407 
	C654.294617,1601.842407 633.027100,1601.842407 611.381226,1601.842407 
	C611.381226,1614.561523 611.381226,1626.948486 611.381226,1639.852783 
	C647.328674,1639.852783 683.377686,1639.852783 719.711548,1639.852783 
	C719.711548,1653.416626 719.711548,1666.468628 719.711548,1679.760864 
	C668.611694,1679.760864 617.687073,1679.760864 566.381104,1679.760864 
	C566.381104,1622.446899 566.381104,1565.072388 566.381104,1507.348389 
	C614.620544,1507.348389 662.997131,1507.348389 711.687317,1507.348389 
	C711.687317,1520.365967 711.687317,1533.418335 711.687317,1546.809692 
	C678.324341,1546.809692 645.060730,1546.809692 611.399536,1546.809692 
	C611.399536,1559.523071 611.399536,1571.910767 611.399536,1585.000000 
	C620.987976,1585.000000 630.744019,1585.000000 641.000000,1585.000000 
z"/>
<path fill="#000000" opacity="1.000000" stroke="none" 
	d="
M1362.996948,1117.999756 
	C1350.864502,1117.999756 1339.231201,1117.999756 1327.092163,1117.999756 
	C1327.092163,1162.384033 1327.092163,1206.430908 1327.092163,1250.737427 
	C1311.985962,1250.737427 1297.384521,1250.737427 1282.271606,1250.737427 
	C1282.271606,1206.799561 1282.271606,1162.752808 1282.271606,1118.187256 
	C1264.384033,1118.187256 1246.993774,1118.187256 1229.304565,1118.187256 
	C1229.304565,1104.617188 1229.304565,1091.564941 1229.304565,1078.255127 
	C1279.021606,1078.255127 1328.613770,1078.255127 1378.603027,1078.255127 
	C1378.603027,1091.191772 1378.603027,1104.246216 1378.603027,1117.999756 
	C1373.679688,1117.999756 1368.587891,1117.999756 1362.996948,1117.999756 
z"/>
<path fill="#000000" opacity="1.000000" stroke="none" 
	d="
M1213.001099,1153.000000 
	C1213.001099,1185.796631 1213.001099,1218.093262 1213.001099,1250.694458 
	C1197.952271,1250.694458 1183.232788,1250.694458 1168.255859,1250.694458 
	C1168.255859,1193.309570 1168.255859,1136.048828 1168.255859,1078.393555 
	C1182.866577,1078.393555 1197.587891,1078.393555 1213.001099,1078.393555 
	C1213.001099,1102.998169 1213.001099,1127.749146 1213.001099,1153.000000 
z"/>
<path fill="#000000" opacity="1.000000" stroke="none" 
	d="
M1532.000000,1251.000244 
	C1488.875000,1251.000244 1446.250000,1251.000244 1403.312866,1251.000244 
	C1403.312866,1193.309937 1403.312866,1135.935547 1403.312866,1078.280029 
	C1451.757324,1078.280029 1500.133789,1078.280029 1548.755371,1078.280029 
	C1548.755371,1091.383789 1548.755371,1104.318726 1548.755371,1117.768799 
	C1515.426758,1117.768799 1482.043335,1117.768799 1448.332031,1117.768799 
	C1448.332031,1130.663696 1448.332031,1143.049561 1448.332031,1155.956543 
	C1469.764404,1155.956543 1491.152954,1155.956543 1512.767334,1155.956543 
	C1512.767334,1161.739380 1512.767334,1167.010376 1512.767334,1172.801758 
	C1491.398315,1172.801758 1470.009766,1172.801758 1448.313721,1172.801758 
	C1448.313721,1185.702026 1448.313721,1198.087402 1448.313721,1210.811768 
	C1484.348267,1210.811768 1520.277710,1210.811768 1556.603149,1210.811768 
	C1556.603149,1224.192017 1556.603149,1237.246460 1556.603149,1251.000244 
	C1548.681030,1251.000244 1540.590454,1251.000244 1532.000000,1251.000244 
z"/>
<path fill="#000000" opacity="1.000000" stroke="none" 
	d="
M791.913879,1211.000000 
	C794.382996,1211.000000 796.362732,1211.000000 798.667725,1211.000000 
	C798.667725,1224.327515 798.667725,1237.380005 798.667725,1250.717529 
	C747.580017,1250.717529 696.536743,1250.717529 645.246582,1250.717529 
	C645.246582,1193.294312 645.246582,1136.036743 645.246582,1078.389160 
	C693.538086,1078.389160 741.915955,1078.389160 790.647583,1078.389160 
	C790.647583,1091.283447 790.647583,1104.336792 790.647583,1117.907715 
	C757.286865,1117.907715 723.902832,1117.907715 690.262207,1117.907715 
	C690.262207,1130.686157 690.262207,1142.954712 690.262207,1155.744141 
	C711.547729,1155.744141 732.936584,1155.744141 754.661011,1155.744141 
	C754.661011,1161.642090 754.661011,1167.031006 754.661011,1172.943359 
	C733.254272,1172.943359 711.865295,1172.943359 690.242432,1172.943359 
	C690.242432,1185.726807 690.242432,1197.994873 690.242432,1211.000000 
	C723.945618,1211.000000 757.685059,1211.000000 791.913879,1211.000000 
z"/>
<path fill="#000000" opacity="1.000000" stroke="none" 
	d="
M1255.000000,1680.000244 
	C1220.539429,1680.000244 1186.578857,1680.000244 1152.309692,1680.000244 
	C1152.309692,1622.303467 1152.309692,1564.929077 1152.309692,1507.276733 
	C1200.763916,1507.276733 1249.140381,1507.276733 1297.758667,1507.276733 
	C1297.758667,1520.390381 1297.758667,1533.325195 1297.758667,1546.775269 
	C1264.420288,1546.775269 1231.036865,1546.775269 1197.328735,1546.775269 
	C1197.328735,1559.670410 1197.328735,1572.056030 1197.328735,1584.963013 
	C1218.770996,1584.963013 1240.159546,1584.963013 1261.770508,1584.963013 
	C1261.770508,1590.745850 1261.770508,1596.016357 1261.770508,1601.808105 
	C1240.391968,1601.808105 1219.003174,1601.808105 1197.310425,1601.808105 
	C1197.310425,1614.708618 1197.310425,1627.093994 1197.310425,1639.818237 
	C1233.354736,1639.818237 1269.284180,1639.818237 1305.606445,1639.818237 
	C1305.606445,1653.198730 1305.606445,1666.253052 1305.606445,1680.000244 
	C1289.004150,1680.000244 1272.252075,1680.000244 1255.000000,1680.000244 
z"/>
<path fill="#000000" opacity="1.000000" stroke="none" 
	d="
M1118.935425,1507.000000 
	C1121.736084,1507.000000 1124.046875,1507.000000 1126.685059,1507.000000 
	C1126.685059,1520.342041 1126.685059,1533.396606 1126.685059,1546.998901 
	C1124.844360,1546.998901 1123.066284,1546.998901 1121.288086,1546.998901 
	C1101.121460,1546.999146 1080.953003,1546.831909 1060.789062,1547.066040 
	C1049.642822,1547.195312 1038.589355,1548.506592 1028.025513,1552.468872 
	C1015.107971,1557.313843 1005.740845,1565.558472 1003.213867,1579.697266 
	C1001.110291,1591.467529 1001.270813,1603.045776 1005.703003,1614.599121 
	C1010.267456,1626.497070 1018.515991,1633.715820 1030.603149,1635.816772 
	C1042.703369,1637.920044 1055.015259,1639.421875 1067.279297,1639.826660 
	C1086.916016,1640.474731 1106.589722,1640.000000 1126.631226,1640.000000 
	C1126.631226,1653.231567 1126.631226,1666.287476 1126.631226,1679.783813 
	C1125.144531,1679.852173 1123.542358,1679.989136 1121.940063,1679.990112 
	C1099.606812,1680.004150 1077.260010,1680.485596 1054.944214,1679.860962 
	C1033.268311,1679.254272 1011.988770,1676.081177 992.576782,1665.229614 
	C971.555481,1653.478149 957.686157,1636.453247 952.966980,1612.498657 
	C949.129089,1593.017578 949.849731,1573.972290 958.664734,1555.794556 
	C970.578430,1531.227051 990.700073,1516.852783 1016.839111,1511.226440 
	C1029.109253,1508.585327 1041.870483,1507.551392 1054.450684,1507.175171 
	C1075.765015,1506.538086 1097.112061,1507.000000 1118.935425,1507.000000 
z"/>
<path fill="#000000" opacity="1.000000" stroke="none" 
	d="
M323.737122,1221.626465 
	C320.379639,1230.695923 317.288422,1239.432495 313.967987,1248.081177 
	C313.509460,1249.275391 311.925385,1250.858154 310.846497,1250.870483 
	C295.037384,1251.050537 279.225616,1250.994385 262.647125,1250.994385 
	C265.221985,1242.997559 267.562927,1235.479614 270.059570,1228.013550 
	C286.337646,1179.335449 302.695740,1130.684082 318.842499,1081.962402 
	C319.880127,1078.831421 321.130920,1077.923096 324.261200,1077.937500 
	C348.752563,1078.050415 373.244720,1078.024170 397.736450,1077.966309 
	C400.437469,1077.959961 402.069489,1078.271118 403.121033,1081.458740 
	C421.417816,1136.925781 439.900757,1192.331543 458.331268,1247.754517 
	C458.628967,1248.649658 458.779785,1249.593750 459.063965,1250.787109 
	C441.460907,1250.787109 424.168732,1250.787109 406.421814,1250.787109 
	C402.818024,1240.986938 398.947601,1231.033081 395.562683,1220.916870 
	C394.514709,1217.784790 393.098846,1216.920044 389.991730,1216.938110 
	C369.665833,1217.056519 349.338226,1217.083496 329.013000,1216.916382 
	C325.604401,1216.888306 324.187653,1218.131958 323.737122,1221.626465 
M378.433594,1187.001221 
	C381.533478,1187.001221 384.633392,1187.001221 388.236725,1187.001221 
	C379.022430,1160.375977 370.025055,1134.377441 360.592712,1107.122070 
	C350.393127,1134.479858 340.685852,1160.517090 330.811951,1187.001221 
	C346.866852,1187.001221 362.160583,1187.001221 378.433594,1187.001221 
z"/>
<path fill="#000000" opacity="1.000000" stroke="none" 
	d="
M909.000000,1211.000000 
	C929.793030,1211.000000 950.086060,1211.000000 970.688782,1211.000000 
	C970.688782,1224.366455 970.688782,1237.416016 970.688782,1250.733765 
	C921.558044,1250.733765 872.525757,1250.733765 823.246582,1250.733765 
	C823.246582,1193.188965 823.246582,1135.827148 823.246582,1078.232422 
	C838.071838,1078.232422 852.669495,1078.232422 867.764282,1078.232422 
	C867.764282,1122.241333 867.764282,1166.278198 867.764282,1211.000000 
	C881.665710,1211.000000 895.082886,1211.000000 909.000000,1211.000000 
z"/>
<path fill="#000000" opacity="1.000000" stroke="none" 
	d="
M1074.000000,1251.000122 
	C1047.543091,1251.000122 1021.586121,1251.000122 995.315186,1251.000122 
	C995.315186,1193.327026 995.315186,1135.965088 995.315186,1078.301025 
	C1010.052551,1078.301025 1024.767822,1078.301025 1039.980347,1078.301025 
	C1039.980347,1122.458984 1039.980347,1166.495850 1039.980347,1210.855957 
	C1074.395752,1210.855957 1108.318359,1210.855957 1142.619873,1210.855957 
	C1142.619873,1224.224365 1142.619873,1237.275391 1142.619873,1251.000122 
	C1119.989502,1251.000122 1097.244751,1251.000122 1074.000000,1251.000122 
z"/>
<path fill="#000000" opacity="1.000000" stroke="none" 
	d="
M516.915100,1117.999756 
	C501.465118,1117.999756 486.506165,1117.999756 471.275085,1117.999756 
	C471.275085,1104.678101 471.275085,1091.742554 471.275085,1078.402466 
	C520.846252,1078.402466 570.556946,1078.402466 620.634277,1078.402466 
	C620.634277,1091.256470 620.634277,1104.310303 620.634277,1117.886719 
	C603.644592,1117.886719 586.586548,1117.886719 569.026245,1117.886719 
	C569.026245,1162.450073 569.026245,1206.497803 569.026245,1250.770996 
	C553.917297,1250.770996 539.316223,1250.770996 524.202393,1250.770996 
	C524.202393,1206.730347 524.202393,1162.682739 524.202393,1117.999756 
	C521.603271,1117.999756 519.504700,1117.999756 516.915100,1117.999756 
z"/>
<path fill="#000000" opacity="1.000000" stroke="none" 
	d="
M484.883606,1569.228760 
	C482.650696,1574.138672 479.112854,1576.089355 474.110962,1576.041870 
	C461.310455,1575.920288 448.508057,1576.001221 435.354401,1576.001221 
	C435.354401,1567.725464 435.354401,1559.675171 435.354401,1550.988525 
	C444.062683,1550.988525 452.819519,1550.988647 461.576355,1550.988525 
	C465.571289,1550.988403 469.566345,1550.970337 473.561157,1550.990967 
	C480.440674,1551.026611 484.818298,1555.359009 484.988617,1562.323730 
	C485.041504,1564.485962 484.977814,1566.651001 484.883606,1569.228760 
z"/>
<path fill="#C1C015" opacity="1.000000" stroke="none" 
	d="
M821.709900,1581.664062 
	C827.286438,1566.699585 832.651306,1552.072754 838.546936,1535.998901 
	C848.029968,1563.397705 857.029236,1589.398560 866.152344,1615.757324 
	C846.964417,1615.757324 828.223694,1615.757324 808.888000,1615.757324 
	C813.140381,1604.374390 817.319336,1593.188110 821.709900,1581.664062 
M848.096313,1595.298096 
	C845.140686,1586.226929 842.184998,1577.155762 838.839417,1566.887817 
	C833.215332,1580.940796 828.108826,1593.700684 822.945312,1606.602783 
	C832.828613,1606.602783 842.315247,1606.602783 852.063049,1606.602783 
	C850.783569,1602.773438 849.650208,1599.381226 848.096313,1595.298096 
z"/>
<path fill="#C1C015" opacity="1.000000" stroke="none" 
	d="
M377.943939,1187.001221 
	C362.160583,1187.001221 346.866852,1187.001221 330.811951,1187.001221 
	C340.685852,1160.517090 350.393127,1134.479858 360.592712,1107.122070 
	C370.025055,1134.377441 379.022430,1160.375977 388.236725,1187.001221 
	C384.633392,1187.001221 381.533478,1187.001221 377.943939,1187.001221 
M363.083771,1145.354248 
	C362.411652,1143.254150 361.739563,1141.154053 360.756226,1138.081543 
	C355.228485,1151.902344 350.128448,1164.653687 344.909637,1177.702148 
	C354.788330,1177.702148 364.263092,1177.702148 374.087494,1177.702148 
	C370.482880,1166.894165 367.002350,1156.458374 363.083771,1145.354248 
z"/>
<path fill="#000000" opacity="1.000000" stroke="none" 
	d="
M848.306519,1595.643555 
	C849.650208,1599.381226 850.783569,1602.773438 852.063049,1606.602783 
	C842.315247,1606.602783 832.828613,1606.602783 822.945312,1606.602783 
	C828.108826,1593.700684 833.215332,1580.940796 838.839417,1566.887817 
	C842.184998,1577.155762 845.140686,1586.226929 848.306519,1595.643555 
z"/>
<path fill="#000000" opacity="1.000000" stroke="none" 
	d="
M363.302795,1145.688477 
	C367.002350,1156.458374 370.482880,1166.894165 374.087494,1177.702148 
	C364.263092,1177.702148 354.788330,1177.702148 344.909637,1177.702148 
	C350.128448,1164.653687 355.228485,1151.902344 360.756226,1138.081543 
	C361.739563,1141.154053 362.411652,1143.254150 363.302795,1145.688477 
z"/>
</svg>