<?xml version="1.0" encoding="UTF-8"?>
<svg version="1.1" xmlns="http://www.w3.org/2000/svg" width="2360" height="1640">
<path d="M0 0 C85.8 0 171.6 0 260 0 C260 29.7 260 59.4 260 90 C206.87 90 153.74 90 99 90 C99 101.22 99 112.44 99 124 C133.32 124 167.64 124 203 124 C203 141.82 203 159.64 203 178 C168.68 178 134.36 178 99 178 C99 189.22 99 200.44 99 212 C156.42 212 213.84 212 273 212 C273.33 238.73 273.66 265.46 274 293 C276.59875 285.059375 279.1975 277.11875 281.875 268.9375 C283.14685059 265.05199178 284.41870117 261.16648356 285.69055176 257.28097534 C289.39044186 245.97735482 293.08773245 234.67289239 296.78125 223.3671875 C309.88533925 183.26488001 309.88533925 183.26488001 316.125 164.625 C320.62351531 151.18638504 325.04518405 137.72369132 329.4375 124.25 C341.24492252 88.03234236 353.06020932 51.81562633 365.05477905 15.65942383 C365.51280992 14.27791218 365.96988534 12.89608333 366.42593384 11.51391602 C367.02578505 9.69709863 367.62991236 7.88169461 368.234375 6.06640625 C368.55631836 5.09646729 368.87826172 4.12652832 369.20996094 3.12719727 C370 1 370 1 371 0 C372.94894959 -0.09664967 374.90145455 -0.12187121 376.85279846 -0.12025452 C378.12471039 -0.12162918 379.39662231 -0.12300385 380.70707703 -0.12442017 C382.12966942 -0.12088055 383.55226158 -0.11724573 384.97485352 -0.11352539 C386.46266681 -0.11324353 387.95048024 -0.11340124 389.43829346 -0.1139679 C393.48977 -0.1142559 397.5412172 -0.10835867 401.59268689 -0.10139394 C405.82211997 -0.09516092 410.05155364 -0.09455664 414.2809906 -0.09336853 C422.29559722 -0.09025506 430.31019027 -0.08204146 438.32479089 -0.07201904 C447.44676684 -0.06085839 456.56874342 -0.05534758 465.69072449 -0.05032361 C484.4604907 -0.03985886 503.23024426 -0.02225912 522 0 C530.94311061 26.07278458 539.77230521 52.18067647 548.46843147 78.33683205 C549.98325824 82.89163085 551.5002106 87.44572167 553.01696777 91.99987793 C557.16874816 104.46703341 561.31745118 116.93521238 565.46607208 129.40341949 C569.28182646 140.87112305 573.09831472 152.33858118 576.91726732 163.80522013 C578.40964198 168.28640978 579.90141542 172.76779728 581.39152527 177.2497406 C588.53785564 198.7439176 595.77105071 220.20615624 603.11281514 241.63442469 C607.0936097 253.25359126 611.01568984 264.89143866 614.89208984 276.54589844 C615.92443201 279.64856614 616.96020356 282.75007776 617.99609375 285.8515625 C618.66165193 287.84889383 619.32702533 289.84628675 619.9921875 291.84375 C620.29824921 292.75991089 620.60431091 293.67607178 620.91964722 294.61999512 C621.33236374 295.86287292 621.33236374 295.86287292 621.75341797 297.13085938 C621.99542938 297.85768921 622.2374408 298.58451904 622.48678589 299.33337402 C623 301 623 301 623 302 C584.72 302 546.44 302 507 302 C489 251 489 251 489 248 C444.945 248.495 444.945 248.495 400 249 C394.11978909 265.69358948 394.11978909 265.69358948 388.24243164 282.38818359 C387.50677697 284.47497149 386.77102522 286.56172516 386.03515625 288.6484375 C385.65161987 289.73938721 385.2680835 290.83033691 384.8729248 291.9543457 C384.50759644 292.98954346 384.14226807 294.02474121 383.76586914 295.09130859 C383.44832169 295.99287689 383.13077423 296.89444519 382.80360413 297.82333374 C382 300 382 300 381 302 C255.27 302 129.54 302 0 302 C0 202.34 0 102.68 0 0 Z M14 13 C14 104.08 14 195.16 14 289 C94.85 289 175.7 289 259 289 C259 267.88 259 246.76 259 225 C201.91 225 144.82 225 86 225 C86 205.2 86 185.4 86 165 C119.99 165 153.98 165 189 165 C189 156.09 189 147.18 189 138 C155.01 138 121.02 138 86 138 C86 117.87 86 97.74 86 77 C138.8 77 191.6 77 246 77 C246 55.88 246 34.76 246 13 C169.44 13 92.88 13 14 13 Z M382 13 C370.53984273 46.53144042 370.53984273 46.53144042 359.25048828 80.11914062 C358.48008192 82.4289957 357.70954915 84.73880862 356.93890381 87.04858398 C354.901236 93.15714182 352.8653833 99.26630294 350.83001566 105.37562752 C349.5542598 109.20442738 348.27801416 113.03306359 347.00152206 116.86161804 C346.67965009 117.82700412 346.67965009 117.82700412 346.35127565 118.81189296 C345.91497244 120.12048276 345.47866791 121.42907213 345.04236208 122.73766106 C341.0054072 134.84571135 336.97025285 146.95436105 332.93577074 159.06323546 C329.47734211 169.44302937 326.01730455 179.82228585 322.55615234 190.20117188 C318.50799918 202.34028791 314.46081226 214.47972537 310.41518581 226.61968374 C309.98514419 227.9101271 309.55510133 229.20057005 309.12505722 230.49101257 C308.91358645 231.12557917 308.70211567 231.76014576 308.48423669 232.41394165 C306.99583401 236.88001232 305.50673648 241.34585095 304.01736832 245.81159973 C302.02462902 251.78694446 300.03334023 257.76277055 298.04320526 263.73898315 C297.31161712 265.9350758 296.57951173 268.1309962 295.84686661 270.32673645 C294.85218797 273.30806466 293.85933533 276.28999457 292.86697388 279.27209473 C292.57302959 280.15169688 292.2790853 281.03129903 291.9762336 281.93755579 C290.60890207 285.40056912 290.60890207 285.40056912 290 289 C317.06 289 344.12 289 372 289 C378.27 271.51 384.54 254.02 391 236 C426.97 235.67 462.94 235.34 500 235 C500.99 238.63 501.98 242.26 503 246 C504.14293286 249.34533333 505.30960362 252.66040658 506.5390625 255.97265625 C506.86538666 256.86238632 507.19171082 257.75211639 507.52792358 258.66880798 C508.20985519 260.52567208 508.89392389 262.38175266 509.58007812 264.23706055 C510.63347499 267.08541614 511.68057143 269.9360268 512.7265625 272.78710938 C513.39287187 274.59908976 514.05952585 276.41094347 514.7265625 278.22265625 C515.19686386 279.50064842 515.19686386 279.50064842 515.67666626 280.80445862 C516.11249527 281.98225136 516.11249527 281.98225136 516.55712891 283.18383789 C516.81233307 283.87457901 517.06753723 284.56532013 517.33047485 285.2769928 C517.99720199 287.07181318 517.99720199 287.07181318 519 289 C547.05 289 575.1 289 604 289 C602.19789432 282.39227916 600.40260351 275.91639251 598.21948242 269.44726562 C597.82827713 268.27562111 597.82827713 268.27562111 597.4291687 267.08030701 C596.57403891 264.52135178 595.71470947 261.96382746 594.85546875 259.40625 C594.24279423 257.57452716 593.63044085 255.74269687 593.01838684 253.9107666 C591.4037296 249.08005398 589.78575523 244.25045987 588.16674805 239.42120361 C585.30914775 230.8966706 582.45587596 222.37069071 579.60546875 213.84375 C579.28625961 212.88911676 578.96705048 211.93448353 578.63816833 210.95092201 C574.19894087 197.66854476 569.82741127 184.36594226 565.51171875 171.04296875 C559.36883854 152.08577238 553.0912451 133.17420824 546.7890625 114.26953125 C546.54247367 113.52983329 546.29588484 112.79013534 546.04182363 112.02802229 C543.01306664 102.94340769 539.98171809 93.85965877 536.94941765 84.7762264 C533.8333832 75.44171052 530.71988238 66.10634958 527.60618973 56.77105236 C522.73943783 42.18004097 517.86947043 27.59010501 513 13 C469.77 13 426.54 13 382 13 Z " fill="#C1BF15" transform="translate(733,1047)"/>
<path d="M0 0 C120.12 0 240.24 0 364 0 C364 29.7 364 59.4 364 90 C336.61 90 309.22 90 281 90 C281 159.96 281 229.92 281 302 C248.33 302 215.66 302 182 302 C182 232.37 182 162.74 182 91 C154.61 91 127.22 91 99 91 C99 160.63 99 230.26 99 302 C66.33 302 33.66 302 0 302 C0 202.34 0 102.68 0 0 Z M14 13 C14 104.08 14 195.16 14 289 C37.76 289 61.52 289 86 289 C86 197.92 86 106.84 86 13 C62.24 13 38.48 13 14 13 Z M112 13 C112 34.12 112 55.24 112 77 C139.39 77 166.78 77 195 77 C195 146.96 195 216.92 195 289 C218.76 289 242.52 289 267 289 C267 219.04 267 149.08 267 77 C294.72 77 322.44 77 351 77 C351 55.88 351 34.76 351 13 C272.13 13 193.26 13 112 13 Z " fill="#C1BF15" transform="translate(1690,364)"/>
<path d="M0 0 C85.8 0 171.6 0 260 0 C260 29.7 260 59.4 260 90 C206.87 90 153.74 90 99 90 C99 101.22 99 112.44 99 124 C133.32 124 167.64 124 203 124 C203 141.82 203 159.64 203 178 C168.68 178 134.36 178 99 178 C99 189.22 99 200.44 99 212 C156.42 212 213.84 212 273 212 C273 241.7 273 271.4 273 302 C182.91 302 92.82 302 0 302 C0 202.34 0 102.68 0 0 Z M14 13 C14 104.08 14 195.16 14 289 C94.85 289 175.7 289 259 289 C259 267.88 259 246.76 259 225 C201.91 225 144.82 225 86 225 C86 205.2 86 185.4 86 165 C119.99 165 153.98 165 189 165 C189 156.09 189 147.18 189 138 C155.01 138 121.02 138 86 138 C86 117.87 86 97.74 86 77 C138.8 77 191.6 77 246 77 C246 55.88 246 34.76 246 13 C169.44 13 92.88 13 14 13 Z " fill="#C1BF15" transform="translate(1665,1047)"/>
<path d="M0 0 C85.8 0 171.6 0 260 0 C260 29.7 260 59.4 260 90 C206.87 90 153.74 90 99 90 C99 101.22 99 112.44 99 124 C133.32 124 167.64 124 203 124 C203 141.82 203 159.64 203 178 C168.68 178 134.36 178 99 178 C99 189.22 99 200.44 99 212 C156.42 212 213.84 212 273 212 C273 241.7 273 271.4 273 302 C182.91 302 92.82 302 0 302 C0 202.34 0 102.68 0 0 Z M14 13 C14 104.08 14 195.16 14 289 C94.85 289 175.7 289 259 289 C259 267.88 259 246.76 259 225 C201.91 225 144.82 225 86 225 C86 205.2 86 185.4 86 165 C119.99 165 153.98 165 189 165 C189 156.09 189 147.18 189 138 C155.01 138 121.02 138 86 138 C86 117.87 86 97.74 86 77 C138.8 77 191.6 77 246 77 C246 55.88 246 34.76 246 13 C169.44 13 92.88 13 14 13 Z " fill="#C1BF15" transform="translate(2066,364)"/>
<path d="M0 0 C85.8 0 171.6 0 260 0 C260 29.7 260 59.4 260 90 C206.87 90 153.74 90 99 90 C99 101.22 99 112.44 99 124 C133.32 124 167.64 124 203 124 C203 141.82 203 159.64 203 178 C168.68 178 134.36 178 99 178 C99 189.22 99 200.44 99 212 C156.42 212 213.84 212 273 212 C273 241.7 273 271.4 273 302 C182.91 302 92.82 302 0 302 C0 202.34 0 102.68 0 0 Z M14 13 C14 104.08 14 195.16 14 289 C94.85 289 175.7 289 259 289 C259 267.88 259 246.76 259 225 C201.91 225 144.82 225 86 225 C86 205.2 86 185.4 86 165 C119.99 165 153.98 165 189 165 C189 156.09 189 147.18 189 138 C155.01 138 121.02 138 86 138 C86 117.87 86 97.74 86 77 C138.8 77 191.6 77 246 77 C246 55.88 246 34.76 246 13 C169.44 13 92.88 13 14 13 Z " fill="#C1BF15" transform="translate(858,364)"/>
<path d="M0 0 C1.53943372 0.00056625 3.07886798 0.0002434 4.61830139 -0.00088501 C8.73704722 -0.0014512 12.85567294 0.01018199 16.97439122 0.02426291 C21.30115325 0.03689478 25.62791903 0.03795046 29.95469666 0.04031372 C38.12107868 0.04649232 46.28740619 0.06285331 54.45376438 0.0830127 C65.50803011 0.10969994 76.5623111 0.12037365 87.61660099 0.13201714 C104.99436 0.15073716 122.37200403 0.1906067 139.74975586 0.22705078 C139.74975586 29.92705078 139.74975586 59.62705078 139.74975586 90.22705078 C129.6215918 90.31792969 129.6215918 90.31792969 119.28881836 90.41064453 C114.93204331 90.45128552 110.57527201 90.49213182 106.21850586 90.53369141 C99.34970689 90.59919476 92.48090741 90.66406301 85.61206055 90.72436523 C53.4431302 90.99878707 53.4431302 90.99878707 21.28100586 91.68408203 C20.60677204 91.7017053 19.93253822 91.71932858 19.23787308 91.73748589 C-3.68390924 92.3529083 -29.2018655 94.36551239 -47.12524414 110.41455078 C-58.14203236 122.4792774 -60.75961743 140.44313738 -60.25024414 156.22705078 C-59.19439873 169.44749917 -57.17489648 181.85891981 -47.64086914 191.63330078 C-46.25024414 193.22705078 -46.25024414 193.22705078 -46.25024414 195.22705078 C-45.68176758 195.49904297 -45.11329102 195.77103516 -44.52758789 196.05126953 C-42.25024414 197.22705078 -42.25024414 197.22705078 -40.19165039 198.55908203 C-23.43673545 208.98619659 -1.06988947 210.06389888 18.14550781 210.75415039 C19.92210895 210.81857409 19.92210895 210.81857409 21.73460102 210.88429928 C34.08614271 211.3083245 46.43500203 211.45008493 58.79272461 211.54345703 C61.15310453 211.5641163 63.51348151 211.58511443 65.87385559 211.60643005 C71.98415691 211.66072736 78.09448621 211.71052993 84.20483398 211.75927734 C91.59098509 211.81918595 98.97708684 211.88488767 106.36319733 211.94957733 C117.49201916 212.04641867 128.62087766 212.13606848 139.74975586 212.22705078 C139.74975586 241.92705078 139.74975586 271.62705078 139.74975586 302.22705078 C101.46635147 302.38826292 101.46635147 302.38826292 85.25952148 302.42236328 C74.12769079 302.4459755 62.99598235 302.47352875 51.86425781 302.52880859 C43.75227718 302.56907276 35.64039699 302.59457597 27.52831918 302.60340476 C23.24549509 302.60855366 18.96295799 302.62037708 14.68022728 302.64997101 C-30.53063491 302.94983903 -78.86798278 296.66455 -115.25024414 267.22705078 C-116.07153809 266.56382812 -116.07153809 266.56382812 -116.90942383 265.88720703 C-147.73861043 240.78854216 -164.27521507 207.49714268 -169.0410614 168.37463379 C-169.38652896 164.8278772 -169.43282045 161.29243063 -169.45336914 157.73095703 C-169.45906921 156.93914536 -169.46476929 156.14733368 -169.47064209 155.33152771 C-169.48003285 153.66170562 -169.48660229 151.99186549 -169.49047852 150.32202148 C-169.50009925 147.82712351 -169.53114375 145.33308135 -169.56274414 142.83837891 C-169.65815884 128.50851116 -167.78508307 114.90156175 -163.56274414 101.16455078 C-163.31000732 100.33511963 -163.05727051 99.50568848 -162.796875 98.65112305 C-157.52300086 82.10032056 -148.35654532 67.48367375 -137.25024414 54.22705078 C-136.69723633 53.53869141 -136.14422852 52.85033203 -135.57446289 52.14111328 C-130.78452761 46.3566091 -125.17503441 41.81007409 -119.25024414 37.22705078 C-118.41879883 36.56833984 -117.58735352 35.90962891 -116.73071289 35.23095703 C-95.23754373 18.82219348 -69.34716189 9.35428564 -43.06274414 3.97705078 C-42.32886475 3.82598877 -41.59498535 3.67492676 -40.83886719 3.51928711 C-27.2731448 0.91709888 -13.78747658 -0.07274244 0 0 Z M-41.50024414 17.41455078 C-43.09908447 17.7349231 -43.09908447 17.7349231 -44.73022461 18.06176758 C-82.25208377 25.94566186 -115.70375386 45.83765145 -136.91430664 78.23095703 C-148.71757911 96.95552017 -155.62740808 119.04867106 -156.25024414 141.22705078 C-156.27070801 141.91202637 -156.29117187 142.59700195 -156.31225586 143.30273438 C-157.28845882 180.97126035 -147.10174655 215.5781998 -120.98730469 243.53417969 C-98.32612786 266.92197457 -67.01388467 279.37394659 -35.56274414 285.53955078 C-34.4454895 285.76046387 -34.4454895 285.76046387 -33.30566406 285.98583984 C-14.55401125 289.36038657 4.242908 289.50805163 23.23034573 289.42983866 C26.84840035 289.41713361 30.4664602 289.41614553 34.08453369 289.41378784 C40.90147291 289.40763006 47.71834615 289.39129854 54.53525662 289.37108886 C63.77124733 289.34431574 73.00725673 289.33371102 82.2432766 289.32208443 C96.74548554 289.30341213 111.24755543 289.26352921 125.74975586 289.22705078 C125.74975586 268.10705078 125.74975586 246.98705078 125.74975586 225.22705078 C117.58225586 225.18966797 109.41475586 225.15228516 100.99975586 225.11376953 C95.11104622 225.07956991 89.22236901 225.04356033 83.33368874 225.00497341 C75.73850935 224.9554413 68.14338292 224.90993797 60.5480957 224.88061523 C53.87597377 224.85484112 47.20409707 224.81371639 40.53210449 224.76386452 C38.00649745 224.7473801 35.48085314 224.73575271 32.9552002 224.72943687 C3.35956691 224.6480552 -32.49277893 224.38490005 -56.25024414 204.22705078 C-70.33041099 188.01352532 -74.85627192 165.71761285 -73.48217773 144.6640625 C-71.88002497 127.82965311 -68.06888178 112.00135851 -55.25024414 100.22705078 C-46.20713338 92.7701906 -35.9243789 87.81742377 -24.75024414 84.47705078 C-24.08694092 84.27837402 -23.4236377 84.07969727 -22.74023438 83.875 C7.97121771 75.21688559 42.59400171 77.83581457 74.16589355 77.62615967 C81.03320122 77.57829331 87.90040297 77.51712997 94.7676239 77.45831299 C105.09495613 77.37129046 115.42228053 77.30068006 125.74975586 77.22705078 C125.74975586 56.10705078 125.74975586 34.98705078 125.74975586 13.22705078 C103.43238005 13.16863288 103.43238005 13.16863288 81.11499023 13.12939453 C71.99346629 13.11759928 62.87197971 13.10385413 53.75048828 13.07617188 C47.10273166 13.05600692 40.45500581 13.04328067 33.80721945 13.03887379 C30.29920123 13.03630473 26.79127088 13.03042945 23.28328133 13.01559067 C1.66529622 12.92778177 -20.23505251 13.04555991 -41.50024414 17.41455078 Z " fill="#C1BF15" transform="translate(1514.250244140625,1046.77294921875)"/>
<path d="M0 0 C1.6689062 0.00138269 1.6689062 0.00138269 3.37152767 0.00279331 C4.6434396 0.00141865 5.91535152 0.00004398 7.22580624 -0.00137234 C8.64839863 0.00216728 10.07099079 0.00580209 11.49358273 0.00952244 C12.98139602 0.0098043 14.46920945 0.00964659 15.95702267 0.00907993 C20.00849921 0.00879193 24.05994641 0.01468916 28.1114161 0.02165389 C32.34084918 0.02788691 36.57028285 0.02849119 40.79971981 0.0296793 C48.81432643 0.03279277 56.82891947 0.04100637 64.8435201 0.05102879 C73.96549605 0.06218944 83.08747263 0.06770025 92.2094537 0.07272422 C110.97921991 0.08318897 129.74897347 0.10078871 148.51872921 0.12304783 C157.46183982 26.19583241 166.29103442 52.3037243 174.98716068 78.45987988 C176.50198745 83.01467867 178.01893981 87.5687695 179.53569698 92.12292576 C183.68747737 104.59008124 187.83618039 117.05826021 191.98480129 129.52646732 C195.80055567 140.99417088 199.61704393 152.46162901 203.43599653 163.92826796 C204.92837119 168.40945761 206.42014463 172.89084511 207.91025448 177.37278843 C215.05658485 198.86696542 222.28977992 220.32920407 229.63154435 241.75747252 C233.61233891 253.37663909 237.53441905 265.01448649 241.41081905 276.66894627 C242.44316122 279.77161397 243.47893277 282.87312559 244.51482296 285.97461033 C245.18038114 287.97194166 245.84575454 289.96933458 246.51091671 291.96679783 C246.81697842 292.88295872 247.12304012 293.79911961 247.43837643 294.74304295 C247.85109295 295.98592075 247.85109295 295.98592075 248.27214718 297.2539072 C248.51415859 297.98073704 248.75617001 298.70756687 249.0055151 299.45642185 C249.51872921 301.12304783 249.51872921 301.12304783 249.51872921 302.12304783 C211.23872921 302.12304783 172.95872921 302.12304783 133.51872921 302.12304783 C115.51872921 251.12304783 115.51872921 251.12304783 115.51872921 248.12304783 C71.46372921 248.61804783 71.46372921 248.61804783 26.51872921 249.12304783 C20.6385183 265.81663731 20.6385183 265.81663731 14.76116085 282.51123142 C14.02550618 284.59801932 13.28975443 286.68477299 12.55388546 288.77148533 C12.17034908 289.86243504 11.78681271 290.95338474 11.39165401 292.07739353 C11.02632565 293.11259129 10.66099728 294.14778904 10.28459835 295.21435642 C9.80827717 296.56670887 9.80827717 296.56670887 9.32233334 297.94638157 C8.51872921 300.12304783 8.51872921 300.12304783 7.51872921 302.12304783 C-28.45127079 302.12304783 -64.42127079 302.12304783 -101.48127079 302.12304783 C-100.78587945 297.95069979 -100.08573067 294.55441315 -98.78571415 290.619874 C-98.43641346 289.55537022 -98.08711277 288.49086643 -97.72722721 287.39410496 C-97.15495144 285.67245121 -97.15495144 285.67245121 -96.57111454 283.91601658 C-95.95911084 282.05660257 -95.34710762 280.19718841 -94.73512459 278.3377676 C-94.08267091 276.35824105 -93.42805705 274.3794412 -92.7727747 272.40084934 C-91.40578619 268.27325128 -90.04453583 264.14377606 -88.68439579 260.01391697 C-87.29596917 255.7988362 -85.90729706 251.58383826 -84.51664066 247.36949253 C-80.63984018 235.61946066 -76.79908027 223.85785657 -72.96866703 212.0926218 C-68.230985 197.54425529 -63.46311639 183.00707908 -58.60627079 168.49804783 C-53.66864152 153.74760249 -48.81469686 138.97044978 -43.98127079 124.18554783 C-43.60511631 123.03501926 -43.22896183 121.8844907 -42.84140873 120.69909763 C-41.28109458 115.92627448 -39.72099902 111.15337993 -38.16115665 106.38040257 C-16.83181765 41.11745975 -16.83181765 41.11745975 -8.49588871 15.99066257 C-8.03358409 14.59633399 -7.57223499 13.20168817 -7.11191654 11.80670261 C-6.50493507 9.96845822 -5.89365646 8.13163429 -5.28205204 6.29492283 C-4.95374393 5.30588963 -4.62543583 4.31685642 -4.28717899 3.29785252 C-3.1224884 0.15484623 -3.1224884 0.15484623 0 0 Z M8.51872921 13.12304783 C-2.94142806 46.65448825 -2.94142806 46.65448825 -14.23078251 80.24218845 C-15.00118887 82.55204353 -15.77172164 84.86185645 -16.54236698 87.17163181 C-18.58003479 93.28018965 -20.61588749 99.38935077 -22.65125513 105.49867535 C-23.92701099 109.32747521 -25.20325663 113.15611142 -26.47974873 116.98466587 C-26.8016207 117.95005195 -26.8016207 117.95005195 -27.12999514 118.93494079 C-27.56629835 120.24353059 -28.00260288 121.55211996 -28.43890871 122.86070889 C-32.47586359 134.96875918 -36.51101794 147.07740887 -40.54550005 159.18628329 C-44.00392868 169.5660772 -47.46396624 179.94533368 -50.92511845 190.3242197 C-54.97327161 202.46333574 -59.02045853 214.6027732 -63.06608498 226.74273157 C-63.4961266 228.03317493 -63.92616946 229.32361787 -64.35621357 230.6140604 C-64.56768434 231.248627 -64.77915512 231.88319359 -64.9970341 232.53698948 C-66.48543678 237.00306015 -67.97453431 241.46889878 -69.46390247 245.93464756 C-71.45664177 251.90999228 -73.44793056 257.88581838 -75.43806553 263.86203098 C-76.16965367 266.05812363 -76.90175906 268.25404403 -77.63440418 270.44978428 C-78.62908282 273.43111249 -79.62193546 276.4130424 -80.61429691 279.39514256 C-80.9082412 280.27474471 -81.20218549 281.15434686 -81.50503719 282.06060362 C-82.87236872 285.52361695 -82.87236872 285.52361695 -83.48127079 289.12304783 C-56.42127079 289.12304783 -29.36127079 289.12304783 -1.48127079 289.12304783 C4.78872921 271.63304783 11.05872921 254.14304783 17.51872921 236.12304783 C53.48872921 235.79304783 89.45872921 235.46304783 126.51872921 235.12304783 C127.50872921 238.75304783 128.49872921 242.38304783 129.51872921 246.12304783 C130.66166207 249.46838116 131.82833283 252.78345441 133.05779171 256.09570408 C133.38411587 256.98543415 133.71044003 257.87516422 134.04665279 258.79185581 C134.7285844 260.64871991 135.4126531 262.50480049 136.09880733 264.36010838 C137.1522042 267.20846396 138.19930064 270.05907463 139.24529171 272.9101572 C139.91160108 274.72213759 140.57825506 276.5339913 141.24529171 278.34570408 C141.71559307 279.62369625 141.71559307 279.62369625 142.19539547 280.92750645 C142.63122448 282.10529919 142.63122448 282.10529919 143.07585812 283.30688572 C143.33106228 283.99762684 143.58626644 284.68836796 143.84920406 285.40004063 C144.5159312 287.19486101 144.5159312 287.19486101 145.51872921 289.12304783 C173.56872921 289.12304783 201.61872921 289.12304783 230.51872921 289.12304783 C228.71662353 282.51532699 226.92133272 276.03944034 224.73821163 269.57031345 C224.34700634 268.39866894 224.34700634 268.39866894 223.94789791 267.20335484 C223.09276812 264.64439961 222.23343868 262.08687529 221.37419796 259.52929783 C220.76152344 257.69757499 220.14917006 255.8657447 219.53711605 254.03381443 C217.92245881 249.20310181 216.30448444 244.3735077 214.68547726 239.54425144 C211.82787696 231.01971843 208.97460517 222.49373854 206.12419796 213.96679783 C205.80498882 213.01216459 205.48577969 212.05753136 205.15689754 211.07396984 C200.71767008 197.79159258 196.34614048 184.48899009 192.03044796 171.16601658 C185.88756775 152.20882021 179.60997431 133.29725606 173.30779171 114.39257908 C173.06120288 113.65288112 172.81461405 112.91318316 172.56055284 112.15107012 C169.53179585 103.06645552 166.5004473 93.9827066 163.46814686 84.89927423 C160.35211241 75.56475835 157.23861159 66.22939741 154.12491894 56.89410019 C149.25816704 42.3030888 144.38819964 27.71315283 139.51872921 13.12304783 C96.28872921 13.12304783 53.05872921 13.12304783 8.51872921 13.12304783 Z " fill="#C1BF15" transform="translate(344.4812707901001,363.8769521713257)"/>
<path d="M0 0 C87.78 0 175.56 0 266 0 C266 29.7 266 59.4 266 90 C238.61 90 211.22 90 183 90 C183 159.96 183 229.92 183 302 C150.33 302 117.66 302 84 302 C84 232.37 84 162.74 84 91 C56.61 91 29.22 91 1 91 C0.67 90.67 0.34 90.34 0 90 C0 60.3 0 30.6 0 0 Z M14 13 C14 34.12 14 55.24 14 77 C41.39 77 68.78 77 97 77 C97 146.96 97 216.92 97 289 C120.76 289 144.52 289 169 289 C169 219.04 169 149.08 169 77 C196.72 77 224.44 77 253 77 C253 55.88 253 34.76 253 13 C174.13 13 95.26 13 14 13 Z " fill="#C1BF15" transform="translate(580,364)"/>
<path d="M0 0 C32.67 0 65.34 0 99 0 C99 69.96 99 139.92 99 212 C153.12 212 207.24 212 263 212 C263 241.7 263 271.4 263 302 C176.21 302 89.42 302 0 302 C0 202.34 0 102.68 0 0 Z M14 13 C14 104.08 14 195.16 14 289 C91.55 289 169.1 289 249 289 C249 267.88 249 246.76 249 225 C195.21 225 141.42 225 86 225 C86 155.04 86 85.08 86 13 C62.24 13 38.48 13 14 13 Z " fill="#C1BF15" transform="translate(1416,364)"/>
<path d="M0 0 C32.67 0 65.34 0 99 0 C99 69.96 99 139.92 99 212 C153.12 212 207.24 212 263 212 C263 241.7 263 271.4 263 302 C176.21 302 89.42 302 0 302 C0 202.34 0 102.68 0 0 Z M14 13 C14 104.08 14 195.16 14 289 C91.55 289 169.1 289 249 289 C249 267.88 249 246.76 249 225 C195.21 225 141.42 225 86 225 C86 155.04 86 85.08 86 13 C62.24 13 38.48 13 14 13 Z " fill="#C1BF15" transform="translate(1142,364)"/>
<path d="M0 0 C26.12246243 -0.09371537 52.24489942 -0.16411198 78.36749649 -0.20724869 C90.49847302 -0.22781605 102.6293447 -0.25582451 114.76025391 -0.30175781 C125.34168344 -0.34180473 135.92303698 -0.36747507 146.50454021 -0.37635398 C152.0999981 -0.38153865 157.69523872 -0.39360125 163.29062653 -0.42292023 C168.57328184 -0.45037235 173.85563347 -0.45838574 179.13835335 -0.45243073 C181.06181306 -0.4535178 182.98528454 -0.46129207 184.90868187 -0.4768219 C214.61860481 -0.70463467 245.29918092 6.96986552 268 27 C268.60714844 27.46535156 269.21429687 27.93070313 269.83984375 28.41015625 C287.31373933 42.00096393 296.63590889 68.38965486 299.3359375 89.64453125 C301.63568318 112.36228928 300.99907726 138.89709249 287 158 C266.78522487 182.70325316 237.87084842 199.13915265 206 203 C198.52436233 203.50088403 191.02262655 203.35206508 183.53515625 203.29296875 C181.64416775 203.28854592 179.75317554 203.28549279 177.86218262 203.28381348 C170.92889828 203.26822359 163.99569308 203.22634045 157.0625 203.1875 C133.7665625 203.0946875 133.7665625 203.0946875 110 203 C110 235.67 110 268.34 110 302 C73.7 302 37.4 302 0 302 C0 297.71 0 293.42 0 289 C32.01 289 64.02 289 97 289 C97 256 97 223 97 189 C104.69699219 188.99742187 112.39398437 188.99484375 120.32421875 188.9921875 C125.24159505 188.97721529 130.15884231 188.96048098 135.07617188 188.9375 C142.85709873 188.90130076 150.63767804 188.87113026 158.41870117 188.87988281 C164.70193517 188.88653854 170.98446818 188.86363916 177.26755714 188.82144547 C179.64771843 188.8104245 182.02795177 188.80951273 184.40811729 188.81957626 C214.55008599 188.93053549 243.04634718 180.51384675 265 159 C265.69996094 158.33613281 266.39992188 157.67226562 267.12109375 156.98828125 C278.17388602 145.67694413 285.30447929 127.71876796 286 112 C286.09474609 110.45892578 286.09474609 110.45892578 286.19140625 108.88671875 C286.84609053 89.22507162 281.85923045 64.44957903 269 49 C268.08541016 47.83017578 268.08541016 47.83017578 267.15234375 46.63671875 C252.59578013 29.14163387 232.74231609 20.65921486 211 16 C210.20677464 15.82571283 209.41354927 15.65142567 208.59628677 15.47185707 C198.87489194 13.58868195 189.22984579 13.6919256 179.37011719 13.68115234 C177.40777683 13.67183935 175.44544038 13.66166867 173.48310852 13.65071106 C168.1885417 13.62355155 162.89400128 13.60830356 157.59938335 13.59528303 C152.0540383 13.57959066 146.50874667 13.55282007 140.96343994 13.5272522 C130.47719185 13.48057213 119.99093359 13.44377604 109.5046351 13.41057932 C97.56017365 13.3722816 85.61576601 13.32289159 73.67135 13.27259517 C49.11427327 13.16943562 24.55716194 13.08012351 0 13 C0 8.71 0 4.42 0 0 Z " fill="#C1BF15" transform="translate(419,1047)"/>
<path d="M0 0 C1.64677422 0.00056504 3.29354895 0.00024575 4.94032288 -0.00088501 C9.38384868 -0.00145591 13.82726524 0.01025564 18.27076578 0.02426291 C22.92455387 0.03681428 27.57834481 0.03794423 32.23214722 0.04031372 C41.03270606 0.04651558 49.83321488 0.06290881 58.63375175 0.0830127 C68.65796969 0.10541207 78.6821901 0.11637527 88.70642686 0.12640357 C109.31586918 0.14727624 129.92526365 0.18283255 150.53466797 0.22705078 C150.53466797 4.51705078 150.53466797 8.80705078 150.53466797 13.22705078 C148.60915604 13.23513763 146.6836441 13.24322449 144.69978333 13.2515564 C126.52933327 13.32913325 108.35895627 13.41678653 90.1886034 13.51457787 C80.8476759 13.56459363 71.5067567 13.61103737 62.16577148 13.64892578 C54.01945407 13.68197767 45.87320318 13.72188071 37.72695941 13.76984084 C33.41788374 13.7949753 29.10885146 13.8167943 24.79972267 13.83039474 C20.73430177 13.84333462 16.66903064 13.86551418 12.60369301 13.89443398 C11.12077974 13.90341748 9.63784242 13.90917807 8.15490341 13.91126442 C-9.69095643 13.94083815 -25.82588516 15.73561347 -39.46533203 28.22705078 C-39.99513672 28.70271484 -40.52494141 29.17837891 -41.07080078 29.66845703 C-51.62397602 40.50455922 -57.44559679 58.40588143 -57.46533203 73.22705078 C-54.99397822 110.92642988 -26.76579414 140.60069276 -1.02075195 165.55517578 C23.68895951 189.56617274 23.68895951 189.56617274 24.62841797 204.90283203 C24.42967643 209.82996606 22.31398651 212.42872447 18.97216797 215.85205078 C6.21049823 225.67600942 -11.88549682 225.38498637 -27.12548828 225.32470703 C-28.52510019 225.32283815 -29.92471276 225.32141647 -31.32432556 225.32041931 C-34.97880919 225.31663114 -38.63325203 225.30683318 -42.28771973 225.29571533 C-46.02855884 225.28542094 -49.76940466 225.28090462 -53.51025391 225.27587891 C-60.82863388 225.26520698 -68.14697201 225.2476409 -75.46533203 225.22705078 C-75.46533203 220.93705078 -75.46533203 216.64705078 -75.46533203 212.22705078 C-73.63019043 212.20723145 -71.79504883 212.18741211 -69.90429688 212.16699219 C-63.78547641 212.09873899 -57.66680802 212.02193253 -51.54816246 211.9395237 C-47.84480782 211.88994885 -44.1414765 211.84362172 -40.43798828 211.80517578 C-36.85221715 211.76782468 -33.26666215 211.72134361 -29.68107986 211.66898727 C-27.67306966 211.64191284 -25.66494398 211.62387369 -23.65682983 211.60610962 C-7.43981202 211.59408425 -7.43981202 211.59408425 7.53466797 206.22705078 C9.05711659 202.5055097 8.74668841 200.76770291 7.28466797 197.03955078 C2.82266965 190.05218537 -3.97482502 184.3579837 -10.21142578 178.98095703 C-23.21825997 167.66732019 -35.40275682 155.23974012 -45.46533203 141.22705078 C-46.23748047 140.17646484 -47.00962891 139.12587891 -47.80517578 138.04345703 C-65.12929534 113.84891741 -75.95501811 87.39556797 -71.99658203 57.14501953 C-68.78406826 38.8834085 -60.50739457 21.61123935 -45.12548828 10.54345703 C-30.9217908 1.54553809 -16.44671384 -0.07945176 0 0 Z " fill="#C1BF15" transform="translate(93.46533203125,363.77294921875)"/>
<path d="M0 0 C1.15755043 -0.00021904 1.15755043 -0.00021904 2.33848572 -0.0004425 C4.85980149 0.00024771 7.38104107 0.00799788 9.90234375 0.01586914 C11.66210896 0.01773649 13.4218747 0.0191589 15.18164062 0.02015686 C19.79129496 0.02395707 24.4009173 0.03376579 29.01055908 0.04486084 C33.72318082 0.05512888 38.43580778 0.05966599 43.1484375 0.06469727 C52.37892023 0.07539051 61.60937932 0.09243664 70.83984375 0.11352539 C70.83984375 4.40352539 70.83984375 8.69352539 70.83984375 13.11352539 C67.72361572 13.14325439 67.72361572 13.14325439 64.54443359 13.17358398 C57.62734118 13.24093648 50.71039037 13.31856495 43.79346275 13.40105247 C39.60583078 13.45068423 35.41822009 13.49701276 31.23046875 13.53540039 C27.17787405 13.57267718 23.12547337 13.61914231 19.07304764 13.6715889 C17.53839193 13.68991064 16.003695 13.70509745 14.46897507 13.71686935 C-3.49882224 13.47430665 -3.49882224 13.47430665 -20.16015625 19.11352539 C-21.3346907 21.46761115 -21.33443021 22.51661418 -20.60253906 25.0234375 C-18.02146493 30.05882521 -15.00619393 33.79582108 -10.91015625 37.67602539 C-10.37519531 38.20131836 -9.84023437 38.72661133 -9.2890625 39.26782227 C-6.37143418 42.1057529 -3.36817104 44.81935564 -0.2890625 47.48071289 C12.00321962 58.16164164 23.31580781 69.89882706 32.83984375 83.11352539 C33.23461914 83.65283691 33.62939453 84.19214844 34.03613281 84.74780273 C53.27171267 111.13141905 63.43944221 138.71312517 59.53076172 171.72387695 C56.90277993 187.55889367 48.49787961 200.81170667 35.765625 210.43774414 C19.60663711 220.87251492 2.4953932 225.60572141 -16.65917969 225.45410156 C-18.17817162 225.45325334 -19.69716478 225.45373424 -21.21615601 225.45542908 C-25.30220232 225.45628284 -29.38797947 225.43875852 -33.47396374 225.4177072 C-37.75803924 225.39883612 -42.04212226 225.3971818 -46.32623291 225.39363098 C-54.42198232 225.38434095 -62.51760885 225.35976877 -70.61330438 225.32958251 C-79.8370899 225.29594329 -89.06088158 225.27952865 -98.28471327 225.26449621 C-117.24326562 225.23321618 -136.20169651 225.17990458 -155.16015625 225.11352539 C-155.16015625 220.82352539 -155.16015625 216.53352539 -155.16015625 212.11352539 C-153.31647461 212.11210037 -151.47279297 212.11067535 -149.57324219 212.10920715 C-132.15418886 212.09250013 -114.73536598 212.04990714 -97.31643677 211.98143482 C-88.36229776 211.94689188 -79.40831099 211.92144341 -70.45410156 211.91796875 C-62.64278061 211.91491389 -54.83173153 211.89422056 -47.02051544 211.85300082 C-42.89064199 211.83180612 -38.76115371 211.81899967 -34.63122559 211.8273716 C-30.73054351 211.83499866 -26.83063628 211.81874492 -22.93009567 211.78546524 C-21.51133888 211.77733467 -20.09250346 211.77735801 -18.67375565 211.78692818 C0.09637907 211.90083482 19.2021067 205.37309296 32.83984375 192.11352539 C42.94242154 180.45968805 46.3647894 165.9250603 45.71484375 150.73852539 C43.90609674 131.08347452 35.57393569 112.85126394 23.83984375 97.11352539 C23.22520264 96.28908936 23.22520264 96.28908936 22.59814453 95.44799805 C13.40470903 83.21394539 3.03010549 72.22838237 -7.72265625 61.36352539 C-8.50189453 60.57115479 -9.28113281 59.77878418 -10.08398438 58.96240234 C-14.05187392 54.98910809 -18.07197319 51.31918005 -22.5078125 47.87133789 C-30.7217375 41.44131362 -36.74369464 31.30563842 -38.5390625 20.92211914 C-38.83750538 15.84859025 -37.36664482 12.92664693 -34.16015625 9.11352539 C-30.57553399 5.87118477 -27.47446049 4.28359071 -22.84765625 2.92602539 C-21.77902344 2.6024707 -20.71039063 2.27891602 -19.609375 1.94555664 C-13.0806786 0.37068424 -6.69534727 -0.03390626 0 0 Z " fill="#C1BF15" transform="translate(173.16015625,440.886474609375)"/>
<path d="M0 0 C2.13413678 2.13413678 2.6170588 3.32198612 3.57788086 6.12768555 C3.87747711 6.99311478 4.17707336 7.85854401 4.48574829 8.75019836 C4.80884979 9.70275009 5.13195129 10.65530182 5.46484375 11.63671875 C5.81018158 12.63942307 6.15551941 13.64212738 6.51132202 14.67521667 C7.65876728 18.01082111 8.79804567 21.34915827 9.9375 24.6875 C10.73597182 27.01273883 11.53505323 29.33776841 12.3347168 31.66259766 C14.02171851 36.5692362 15.70575623 41.47687772 17.38769531 46.38525391 C21.26326394 57.69249964 25.1688857 68.98936765 29.07302856 80.28677368 C30.2887497 83.80624371 31.50285342 87.32626785 32.71655273 90.84643555 C33.47368496 93.04089103 34.2309241 95.23530963 34.98828125 97.4296875 C35.34367477 98.45997574 35.6990683 99.49026398 36.06523132 100.55177307 C38.38617865 107.26591145 40.76122567 113.95753615 43.21166992 120.62548828 C44 123 44 123 44 125 C14.3 125 -15.4 125 -46 125 C-45.34101003 121.70505017 -44.76560641 119.08070068 -43.62744141 116.01904297 C-43.34777023 115.26114975 -43.06809906 114.50325653 -42.779953 113.72239685 C-42.47358414 112.90392776 -42.16721527 112.08545868 -41.8515625 111.2421875 C-41.52718704 110.36655655 -41.20281158 109.4909256 -40.86860657 108.58876038 C-39.79102998 105.6828131 -38.70806943 102.77890406 -37.625 99.875 C-36.86632116 97.83287387 -36.10794446 95.79063546 -35.34985352 93.74829102 C-33.32445197 88.29481258 -31.29424277 82.84313534 -29.26312256 77.39178467 C-27.57118817 72.84853819 -25.88247163 68.3040986 -24.19378662 63.75964355 C-22.10971399 58.15175773 -20.02378373 52.54456355 -17.9375 46.9375 C-17.54725647 45.88842468 -17.15701294 44.83934937 -16.75494385 43.75848389 C-12.70296696 32.86990505 -8.63193335 21.98891348 -4.50390625 11.12890625 C-4.16511948 10.23614487 -3.8263327 9.34338348 -3.47727966 8.42356873 C-3.16581497 7.60646927 -2.85435028 6.78936981 -2.53344727 5.94750977 C-2.26041275 5.23055435 -1.98737823 4.51359894 -1.70606995 3.7749176 C-1 2 -1 2 0 0 Z M0 47 C-3.26361819 55.17803953 -6.52356238 63.35753091 -9.77878571 71.53891563 C-11.29032456 75.33754282 -12.80313876 79.13565177 -14.31884766 82.93261719 C-15.78070629 86.59481871 -17.23924069 90.25832765 -18.69544983 93.92277908 C-19.25245723 95.32273366 -19.81067417 96.7222076 -20.37010193 98.12119675 C-21.15160565 100.07613287 -21.9288462 102.03271193 -22.70507812 103.98974609 C-23.14920044 105.1044931 -23.59332275 106.21924011 -24.05090332 107.36776733 C-25.11306392 109.84722034 -25.11306392 109.84722034 -25 112 C-9.16 112 6.68 112 23 112 C21.04512628 104.83212968 19.03229578 97.88537158 16.56640625 90.90625 C16.24719711 89.9934729 15.92798798 89.0806958 15.59910583 88.14025879 C14.590426 85.25892355 13.57649003 82.37947015 12.5625 79.5 C11.88703814 77.57173073 11.21190551 75.64334609 10.53710938 73.71484375 C7.41072803 64.79071297 4.27420671 55.87119733 1 47 C0.67 47 0.34 47 0 47 Z " fill="#C1BF15" transform="translate(1179,1109)"/>
<path d="M0 0 C2.13413678 2.13413678 2.6170588 3.32198612 3.57788086 6.12768555 C3.87747711 6.99311478 4.17707336 7.85854401 4.48574829 8.75019836 C4.80884979 9.70275009 5.13195129 10.65530182 5.46484375 11.63671875 C5.81018158 12.63942307 6.15551941 13.64212738 6.51132202 14.67521667 C7.65876728 18.01082111 8.79804567 21.34915827 9.9375 24.6875 C10.73597182 27.01273883 11.53505323 29.33776841 12.3347168 31.66259766 C14.02171851 36.5692362 15.70575623 41.47687772 17.38769531 46.38525391 C21.26326394 57.69249964 25.1688857 68.98936765 29.07302856 80.28677368 C30.2887497 83.80624371 31.50285342 87.32626785 32.71655273 90.84643555 C33.47368496 93.04089103 34.2309241 95.23530963 34.98828125 97.4296875 C35.34367477 98.45997574 35.6990683 99.49026398 36.06523132 100.55177307 C38.38617865 107.26591145 40.76122567 113.95753615 43.21166992 120.62548828 C44 123 44 123 44 125 C14.3 125 -15.4 125 -46 125 C-45.34101003 121.70505017 -44.76560641 119.08070068 -43.62744141 116.01904297 C-43.34777023 115.26114975 -43.06809906 114.50325653 -42.779953 113.72239685 C-42.47358414 112.90392776 -42.16721527 112.08545868 -41.8515625 111.2421875 C-41.52718704 110.36655655 -41.20281158 109.4909256 -40.86860657 108.58876038 C-39.79102998 105.6828131 -38.70806943 102.77890406 -37.625 99.875 C-36.86632116 97.83287387 -36.10794446 95.79063546 -35.34985352 93.74829102 C-33.32445197 88.29481258 -31.29424277 82.84313534 -29.26312256 77.39178467 C-27.57118817 72.84853819 -25.88247163 68.3040986 -24.19378662 63.75964355 C-22.10971399 58.15175773 -20.02378373 52.54456355 -17.9375 46.9375 C-17.54725647 45.88842468 -17.15701294 44.83934937 -16.75494385 43.75848389 C-12.70296696 32.86990505 -8.63193335 21.98891348 -4.50390625 11.12890625 C-4.16511948 10.23614487 -3.8263327 9.34338348 -3.47727966 8.42356873 C-3.16581497 7.60646927 -2.85435028 6.78936981 -2.53344727 5.94750977 C-2.26041275 5.23055435 -1.98737823 4.51359894 -1.70606995 3.7749176 C-1 2 -1 2 0 0 Z M0 47 C-3.26361819 55.17803953 -6.52356238 63.35753091 -9.77878571 71.53891563 C-11.29032456 75.33754282 -12.80313876 79.13565177 -14.31884766 82.93261719 C-15.78070629 86.59481871 -17.23924069 90.25832765 -18.69544983 93.92277908 C-19.25245723 95.32273366 -19.81067417 96.7222076 -20.37010193 98.12119675 C-21.15160565 100.07613287 -21.9288462 102.03271193 -22.70507812 103.98974609 C-23.14920044 105.1044931 -23.59332275 106.21924011 -24.05090332 107.36776733 C-25.11306392 109.84722034 -25.11306392 109.84722034 -25 112 C-9.16 112 6.68 112 23 112 C21.04512628 104.83212968 19.03229578 97.88537158 16.56640625 90.90625 C16.24719711 89.9934729 15.92798798 89.0806958 15.59910583 88.14025879 C14.590426 85.25892355 13.57649003 82.37947015 12.5625 79.5 C11.88703814 77.57173073 11.21190551 75.64334609 10.53710938 73.71484375 C7.41072803 64.79071297 4.27420671 55.87119733 1 47 C0.67 47 0.34 47 0 47 Z " fill="#C1BF15" transform="translate(417,426)"/>
<path d="M0 0 C21.89049683 -0.16043524 21.89049683 -0.16043524 31.24609375 -0.1953125 C37.62139255 -0.21919224 43.9964608 -0.24739413 50.37158203 -0.30175781 C55.51334149 -0.34532794 60.65485358 -0.36916085 65.79678345 -0.37950897 C67.75513602 -0.38688029 69.71347559 -0.40127477 71.67172241 -0.42292023 C74.4220672 -0.45210268 77.17139945 -0.45594982 79.921875 -0.45410156 C81.12705528 -0.47567322 81.12705528 -0.47567322 82.35658264 -0.49768066 C89.01111994 -0.44952553 94.14347126 1.54793551 99.20703125 5.89453125 C107.38864982 15.66867898 109.43546056 26.03865403 108.8125 38.625 C108.00173441 47.72980434 106.78772654 55.52080649 100 62 C93.51471551 66.5324123 88.11143211 67.14753116 80.37597656 67.11352539 C79.50732468 67.11367142 78.63867279 67.11381744 77.74369812 67.1139679 C74.87598157 67.11327191 72.00833019 67.10549415 69.140625 67.09765625 C67.1509403 67.09579096 65.16125515 67.09436758 63.17156982 67.09336853 C57.93714121 67.08955212 52.70274039 67.07972929 47.46832275 67.06866455 C41.18658523 67.05663217 34.90483841 67.05204402 28.62309265 67.04621124 C19.08204245 67.03651709 9.5410532 67.01735438 0 67 C0 44.89 0 22.78 0 0 Z M14 13 C14 26.53 14 40.06 14 54 C26.11716662 54.08730278 26.11716662 54.08730278 38.234375 54.14648438 C43.17880956 54.16439628 48.12307696 54.18555345 53.06738281 54.22631836 C57.05499983 54.25898863 61.04243751 54.27686913 65.03017807 54.28463173 C66.54918108 54.29016152 68.06817462 54.30095992 69.58710098 54.31719017 C71.71990177 54.33906711 73.85196779 54.34196275 75.98486328 54.34057617 C77.1973172 54.34723801 78.40977112 54.35389984 79.65896606 54.36076355 C84.32529239 53.85689544 87.57982399 52.10458134 91.25 49.25 C95.75062833 43.46347787 95.73373319 36.0283916 95 29 C94.06063984 24.33003807 92.66268888 20.53577261 89.10574341 17.25033569 C81.44829964 12.2182488 74.20668831 12.21649238 65.3671875 12.4140625 C63.87934088 12.4252771 62.39147183 12.43380657 60.90359497 12.43978882 C57.01998866 12.46251031 53.13776581 12.52128267 49.25469971 12.5880127 C44.57834457 12.66069656 39.90152233 12.68782122 35.22476196 12.72273254 C28.14888423 12.78057894 21.07603142 12.89565655 14 13 Z " fill="#C1BF15" transform="translate(523,1117)"/>
<path d="M0 0 C4.62 0 9.24 0 14 0 C14 48.84 14 97.68 14 148 C9.38 148 4.76 148 0 148 C0 99.16 0 50.32 0 0 Z " fill="#C1BF14" transform="translate(419,1124)"/>
</svg>
