<?xml version="1.0" encoding="UTF-8"?>
<svg version="1.1" xmlns="http://www.w3.org/2000/svg" width="1640" height="2360">
<path d="M0 0 C54.12 0 108.24 0 164 0 C164 18.81 164 37.62 164 57 C130.67 57 97.34 57 63 57 C63 63.93 63 70.86 63 78 C84.45 78 105.9 78 128 78 C128 89.22 128 100.44 128 112 C106.55 112 85.1 112 63 112 C63 118.93 63 125.86 63 133 C98.97 133 134.94 133 172 133 C172.33 149.83 172.66 166.66 173 184 C175.02125 177.791875 177.0425 171.58375 179.125 165.1875 C184.80160482 147.77986765 190.51537961 130.38468874 196.25 112.99609375 C196.73070765 111.53842748 196.73070765 111.53842748 197.22112656 110.0513134 C200.47023204 100.19954571 203.72081362 90.34826645 206.97386742 80.49780178 C208.21916326 76.72657802 209.46394089 72.95518341 210.70849228 69.18371391 C211.32221509 67.32399362 211.93607757 65.46431941 212.55008316 63.60469246 C216.0640727 52.95969203 219.55567843 42.30783799 223.01074219 31.64355469 C223.33666037 30.63843527 223.66257854 29.63331585 223.99837303 28.59773827 C225.56673122 23.76007832 227.13180754 18.92140094 228.69119263 14.08084106 C229.24828295 12.35968533 229.80547713 10.6385632 230.36279297 8.91748047 C230.61659603 8.12546108 230.87039909 7.3334417 231.13189316 6.51742172 C232.88654918 1.11345082 232.88654918 1.11345082 234 0 C236.95246354 -0.09526806 239.88148421 -0.12552452 242.83422852 -0.11352539 C244.22433136 -0.11374443 244.22433136 -0.11374443 245.64251709 -0.1139679 C248.72133687 -0.11326838 251.80009697 -0.10547421 254.87890625 -0.09765625 C257.00740018 -0.09579221 259.13589453 -0.09436824 261.26438904 -0.09336853 C266.8786232 -0.08954228 272.49283168 -0.07971108 278.10705566 -0.06866455 C283.83113253 -0.05845273 289.55521353 -0.0538714 295.27929688 -0.04882812 C306.51954256 -0.03808891 317.75976915 -0.0210112 329 0 C343.78997587 43.21354771 343.78997587 43.21354771 349.23587036 59.68930054 C353.66102787 73.07081144 358.15338369 86.42769387 362.72894287 99.75848389 C368.8714606 117.65800633 374.91955232 135.58883402 380.9225769 153.53555298 C381.88826743 156.42228281 382.85607073 159.30829065 383.82571411 162.19369507 C384.97325184 165.6089923 386.1163052 169.02575784 387.25592613 172.44370461 C387.88624872 174.33069802 388.52093987 176.21623039 389.15571594 178.10173035 C389.53149277 179.23202164 389.90726959 180.36231293 390.29443359 181.52685547 C390.62526947 182.51571747 390.95610535 183.50457947 391.29696655 184.52340698 C392 187 392 187 392 190 C367.91 190 343.82 190 319 190 C308 158 308 158 308 156 C289.52 156 271.04 156 252 156 C251.34 158.97 250.68 161.94 250 165 C247.03 173.25 244.06 181.5 241 190 C161.47 190 81.94 190 0 190 C0 127.3 0 64.6 0 0 Z M9 9 C9 66.09 9 123.18 9 182 C59.82 182 110.64 182 163 182 C163 168.8 163 155.6 163 142 C127.03 142 91.06 142 54 142 C54 129.46 54 116.92 54 104 C75.45 104 96.9 104 119 104 C119 98.39 119 92.78 119 87 C97.55 87 76.1 87 54 87 C54 74.46 54 61.92 54 49 C87.33 49 120.66 49 155 49 C155 35.8 155 22.6 155 9 C106.82 9 58.64 9 9 9 Z M241 9 C232.72748338 33.09029565 224.55460447 57.21118659 216.5 81.375 C216.27476906 82.05069283 216.04953812 82.72638565 215.81748199 83.42255402 C209.30353198 102.9690616 202.85129792 122.53481595 196.50341797 142.13598633 C193.1114605 152.60873505 189.67762249 163.06491493 186.12963867 173.48608398 C185.84193604 174.33759033 185.5542334 175.18909668 185.2578125 176.06640625 C184.88873779 177.1483728 184.88873779 177.1483728 184.51220703 178.25219727 C183.90625667 180.01632845 183.90625667 180.01632845 184 182 C200.5 182 217 182 234 182 C237.1359606 174.47369457 240.15501292 167.06000679 242.8125 159.375 C243.12380859 158.49199219 243.43511719 157.60898438 243.75585938 156.69921875 C245.38577051 152.44527117 245.38577051 152.44527117 246 148 C280.155 148.495 280.155 148.495 315 149 C318.96 159.89 322.92 170.78 327 182 C344.49 182 361.98 182 380 182 C378.74022364 176.33100637 377.53011263 171.21611162 375.71617126 165.78102112 C375.3838986 164.77929986 375.3838986 164.77929986 375.04491335 163.7573418 C374.31145431 161.54975921 373.57165121 159.3443594 372.83178711 157.13891602 C372.30071971 155.54492193 371.77004486 153.95079701 371.23973083 152.35655212 C369.80589448 148.04993266 368.36649369 143.74519211 366.9259727 139.44080472 C365.41793194 134.93176636 363.91478271 130.42109775 362.411026 125.91062927 C359.88795157 118.34509135 357.36150476 110.78068666 354.83276367 103.21704102 C351.5844221 93.50095941 348.34167932 83.78301885 345.10068417 74.0644846 C342.31424825 65.70915173 339.52525628 57.35467248 336.73585057 49.00033069 C335.83870934 46.31300819 334.94192118 43.62556806 334.04517937 40.93811226 C332.63899701 36.72444961 331.23122466 32.51132142 329.82219887 28.29860878 C329.30446807 26.74994682 328.78724633 25.20111457 328.27056122 23.65210342 C327.56737961 21.54429876 326.86236297 19.43711699 326.15684509 17.33009338 C325.56480238 15.55842725 325.56480238 15.55842725 324.96079922 13.75096989 C324.09430945 11.08254606 324.09430945 11.08254606 323 9 C295.94 9 268.88 9 241 9 Z " fill="#C1BF15" transform="translate(556,1497)"/>
<path d="M0 0 C75.57 0 151.14 0 229 0 C229 18.81 229 37.62 229 57 C211.51 57 194.02 57 176 57 C176 100.89 176 144.78 176 190 C155.54 190 135.08 190 114 190 C114 146.11 114 102.22 114 57 C97.17 57 80.34 57 63 57 C63 100.89 63 144.78 63 190 C42.21 190 21.42 190 0 190 C0 127.3 0 64.6 0 0 Z M9 9 C9 66.09 9 123.18 9 182 C23.85 182 38.7 182 54 182 C54 124.91 54 67.82 54 9 C39.15 9 24.3 9 9 9 Z M70 9 C70 22.2 70 35.4 70 49 C87.49 49 104.98 49 123 49 C123 92.89 123 136.78 123 182 C137.85 182 152.7 182 168 182 C168 138.11 168 94.22 168 49 C185.16 49 202.32 49 220 49 C220 35.8 220 22.6 220 9 C170.5 9 121 9 70 9 Z " fill="#C1BF15" transform="translate(1158,1068)"/>
<path d="M0 0 C54.12 0 108.24 0 164 0 C164 18.81 164 37.62 164 57 C130.67 57 97.34 57 63 57 C63 63.93 63 70.86 63 78 C84.45 78 105.9 78 128 78 C128 89.22 128 100.44 128 112 C106.55 112 85.1 112 63 112 C63 118.93 63 125.86 63 133 C98.97 133 134.94 133 172 133 C172 151.81 172 170.62 172 190 C115.24 190 58.48 190 0 190 C0 127.3 0 64.6 0 0 Z M9 9 C9 66.09 9 123.18 9 182 C59.82 182 110.64 182 163 182 C163 168.8 163 155.6 163 142 C127.03 142 91.06 142 54 142 C54 129.46 54 116.92 54 104 C75.45 104 96.9 104 119 104 C119 98.39 119 92.78 119 87 C97.55 87 76.1 87 54 87 C54 74.46 54 61.92 54 49 C87.33 49 120.66 49 155 49 C155 35.8 155 22.6 155 9 C106.82 9 58.64 9 9 9 Z " fill="#C1BF15" transform="translate(1142,1497)"/>
<path d="M0 0 C54.12 0 108.24 0 164 0 C164 18.81 164 37.62 164 57 C130.67 57 97.34 57 63 57 C63 63.93 63 70.86 63 78 C84.45 78 105.9 78 128 78 C128 89.22 128 100.44 128 112 C106.55 112 85.1 112 63 112 C63 118.93 63 125.86 63 133 C98.97 133 134.94 133 172 133 C172 151.81 172 170.62 172 190 C115.24 190 58.48 190 0 190 C0 127.3 0 64.6 0 0 Z M9 9 C9 66.09 9 123.18 9 182 C59.82 182 110.64 182 163 182 C163 168.8 163 155.6 163 142 C127.03 142 91.06 142 54 142 C54 129.46 54 116.92 54 104 C75.45 104 96.9 104 119 104 C119 98.39 119 92.78 119 87 C97.55 87 76.1 87 54 87 C54 74.46 54 61.92 54 49 C87.33 49 120.66 49 155 49 C155 35.8 155 22.6 155 9 C106.82 9 58.64 9 9 9 Z " fill="#C1BF15" transform="translate(1393,1068)"/>
<path d="M0 0 C54.12 0 108.24 0 164 0 C164 18.81 164 37.62 164 57 C130.67 57 97.34 57 63 57 C63 63.93 63 70.86 63 78 C84.45 78 105.9 78 128 78 C128 89.22 128 100.44 128 112 C106.55 112 85.1 112 63 112 C63 118.93 63 125.86 63 133 C98.97 133 134.94 133 172 133 C172 151.81 172 170.62 172 190 C115.24 190 58.48 190 0 190 C0 127.3 0 64.6 0 0 Z M9 9 C9 66.09 9 123.18 9 182 C59.82 182 110.64 182 163 182 C163 168.8 163 155.6 163 142 C127.03 142 91.06 142 54 142 C54 129.46 54 116.92 54 104 C75.45 104 96.9 104 119 104 C119 98.39 119 92.78 119 87 C97.55 87 76.1 87 54 87 C54 74.46 54 61.92 54 49 C87.33 49 120.66 49 155 49 C155 35.8 155 22.6 155 9 C106.82 9 58.64 9 9 9 Z " fill="#C1BF15" transform="translate(635,1068)"/>
<path d="M0 0 C2.1447469 0.00561487 4.28949771 0.00987598 6.43424988 0.01286316 C12.00225991 0.02416338 17.57002452 0.05349764 23.13793945 0.0869751 C29.85973796 0.12348304 36.58161983 0.13690791 43.30348969 0.15433502 C53.44598525 0.18314799 63.58794536 0.24073756 73.73046875 0.29296875 C73.73046875 19.10296875 73.73046875 37.91296875 73.73046875 57.29296875 C66.58970703 57.38384766 66.58970703 57.38384766 59.3046875 57.4765625 C56.24673811 57.51716794 53.18879483 57.55799689 50.13085938 57.59960938 C45.30186409 57.66530189 40.47286847 57.73027012 35.64379883 57.7902832 C5.61444265 57.21354607 5.61444265 57.21354607 -23.95703125 61.04296875 C-24.69832275 61.21417236 -25.43961426 61.38537598 -26.20336914 61.56176758 C-31.65081807 62.91353525 -35.76110516 64.88864701 -40.26953125 68.29296875 C-41.75453125 68.78796875 -41.75453125 68.78796875 -43.26953125 69.29296875 C-44.39153338 71.13526377 -44.39153338 71.13526377 -45.26953125 73.29296875 C-45.59953125 73.89753906 -45.92953125 74.50210937 -46.26953125 75.125 C-52.4480628 87.36138866 -52.18619198 100.49116248 -48.26953125 113.29296875 C-45.29050008 119.97964861 -40.95868951 124.34461154 -34.26953125 127.29296875 C-19.80046572 132.62000413 -4.07337819 132.6064027 11.1328125 132.70703125 C12.94984264 132.72579154 14.76686451 132.74536834 16.58387756 132.76571655 C21.31337557 132.81653128 26.04290168 132.85642435 30.77252197 132.89385986 C36.4755933 132.94134639 42.17853084 133.00272213 47.88149261 133.06170654 C56.49776246 133.14929926 65.11401478 133.2195056 73.73046875 133.29296875 C73.73046875 152.10296875 73.73046875 170.91296875 73.73046875 190.29296875 C48.95659418 190.41329518 48.95659418 190.41329518 38.30273438 190.43945312 C31.06576849 190.45730668 23.82891771 190.47830485 16.59204102 190.51928711 C10.7499968 190.55215909 4.90807623 190.56987984 -0.93405342 190.57760048 C-3.15010076 190.58309445 -5.36614223 190.59382094 -7.58213615 190.61015892 C-40.7715966 190.84486819 -71.27922142 183.38384538 -95.95703125 160.10546875 C-114.62347791 140.79349655 -120.94159011 116.08353628 -120.74438477 89.81884766 C-120.08335056 65.13169211 -110.93754729 44.71179169 -93.3046875 27.359375 C-67.79239808 3.93398042 -33.10403197 -0.25989493 0 0 Z M-89.26953125 37.29296875 C-89.93597656 37.95425781 -90.60242188 38.61554688 -91.2890625 39.296875 C-107.84109723 56.41286321 -111.83195979 77.69076462 -111.5390625 100.8046875 C-110.9505312 120.69008738 -103.73889562 137.6641536 -90.26953125 152.29296875 C-89.73070312 152.92332031 -89.191875 153.55367187 -88.63671875 154.203125 C-70.68397192 174.0052754 -39.87767164 180.74011537 -14.34371567 182.19935989 C-7.58823603 182.50423766 -0.81907778 182.41271768 5.94140625 182.390625 C7.64775551 182.38875467 9.35410532 182.38733368 11.06045532 182.38633728 C15.50233502 182.38256046 19.94418084 182.37277284 24.38604736 182.3616333 C29.74192607 182.34949227 35.09781624 182.34499387 40.45370483 182.33917999 C48.54598288 182.32955739 56.6381869 182.31036735 64.73046875 182.29296875 C64.73046875 169.09296875 64.73046875 155.89296875 64.73046875 142.29296875 C59.620625 142.25558594 54.51078125 142.21820312 49.24609375 142.1796875 C45.96481313 142.14933076 42.6835818 142.11813309 39.40234375 142.08398438 C34.2200809 142.03012882 29.03791547 141.97900871 23.85546875 141.9465332 C-35.09478788 141.56587928 -35.09478788 141.56587928 -48.95703125 128.73046875 C-57.31135532 119.70779875 -59.66685449 107.93562812 -59.58203125 95.98046875 C-59.57465942 94.74043091 -59.57465942 94.74043091 -59.56713867 93.4753418 C-59.36010012 82.59148417 -57.3190041 72.80659552 -49.7421875 64.6484375 C-34.45035135 50.43602508 -11.80520931 50.18378096 7.796875 49.9765625 C9.44311502 49.95595692 11.08935017 49.93495959 12.73558044 49.91358948 C17.04102611 49.85874059 21.34651653 49.80916943 25.65203857 49.76074219 C30.83264239 49.70135603 36.0131655 49.63533535 41.1937027 49.5704422 C49.03924154 49.47290145 56.88483529 49.38372552 64.73046875 49.29296875 C64.73046875 36.09296875 64.73046875 22.89296875 64.73046875 9.29296875 C49.57814139 9.20545154 49.57814139 9.20545154 34.42578125 9.14648438 C28.22941202 9.12867551 22.033178 9.10780228 15.83691406 9.06665039 C10.83127123 9.0336208 5.82577376 9.01602571 0.82003021 9.00833702 C-1.07256605 9.00287055 -2.965156 8.99220108 -4.8576889 8.97577858 C-35.53477792 8.72060431 -67.38396805 13.76598831 -89.26953125 37.29296875 Z " fill="#C1BF15" transform="translate(1061.26953125,1496.70703125)"/>
<path d="M0 0 C1.32708733 0.00539291 1.32708733 0.00539291 2.6809845 0.01089478 C4.07108734 0.01067574 4.07108734 0.01067574 5.48927307 0.01045227 C8.56809285 0.01115178 11.64685295 0.01894595 14.72566223 0.02676392 C16.85415616 0.02862796 18.98265051 0.03005193 21.11114502 0.03105164 C26.72537919 0.03487789 32.33958766 0.04470909 37.95381165 0.05575562 C43.67788851 0.06596743 49.40196951 0.07054876 55.12605286 0.07559204 C66.36629855 0.08633126 77.60652513 0.10340896 88.84675598 0.12442017 C103.63673185 43.33796787 103.63673185 43.33796787 109.08262634 59.8137207 C113.50778386 73.1952316 118.00013967 86.55211404 122.57569885 99.88290405 C128.71821658 117.7824265 134.7663083 135.71325419 140.76933289 153.65997314 C141.73502341 156.54670297 142.70282671 159.43271082 143.67247009 162.31811523 C144.82000782 165.73341246 145.96306118 169.150178 147.10268211 172.56812477 C147.73300471 174.45511819 148.36769585 176.34065056 149.00247192 178.22615051 C149.37824875 179.3564418 149.75402557 180.48673309 150.14118958 181.65127563 C150.47202545 182.64013763 150.80286133 183.62899963 151.14372253 184.64782715 C151.84675598 187.12442017 151.84675598 187.12442017 151.84675598 190.12442017 C127.75675598 190.12442017 103.66675598 190.12442017 78.84675598 190.12442017 C67.84675598 158.12442017 67.84675598 158.12442017 67.84675598 156.12442017 C49.36675598 156.12442017 30.88675598 156.12442017 11.84675598 156.12442017 C11.18675598 159.09442017 10.52675598 162.06442017 9.84675598 165.12442017 C6.87675598 173.37442017 3.90675598 181.62442017 0.84675598 190.12442017 C-21.92324402 190.12442017 -44.69324402 190.12442017 -68.15324402 190.12442017 C-66.81190893 184.08841225 -65.39112014 178.38179024 -63.46012878 172.55093384 C-63.1962203 171.74260164 -62.93231182 170.93426945 -62.66040611 170.10144234 C-61.78846807 167.43454594 -60.91038396 164.76971808 -60.03215027 162.10488892 C-59.40687671 160.19729397 -58.78192986 158.28959192 -58.1572876 156.38179016 C-56.1621939 150.29393665 -54.15804205 144.20908337 -52.15324402 138.12442017 C-51.49520848 136.12543558 -50.83722867 134.12643264 -50.17930603 132.12741089 C-45.15262134 116.85774172 -40.10900299 101.59367609 -35.06382751 86.33010864 C-33.0203479 80.14757181 -30.97751176 73.96482313 -28.93579483 67.78170395 C-28.26949205 65.76398299 -27.60302817 63.74631522 -26.93639755 61.72870255 C-23.36148048 50.9068218 -19.80565859 40.07923258 -16.29826355 29.23526001 C-15.99274976 28.29135375 -15.68723597 27.34744749 -15.37246418 26.37493801 C-13.92786251 21.90991472 -12.48696114 17.44375118 -11.05215454 12.97557068 C-10.54630144 11.40821717 -10.04037056 9.84088875 -9.53434753 8.27359009 C-9.30580393 7.55734907 -9.07726032 6.84110806 -8.84179115 6.10316277 C-6.87925262 0.04146163 -6.42687463 0.01103357 0 0 Z M0.84675598 9.12442017 C-7.42576064 33.21471581 -15.59863955 57.33560676 -23.65324402 81.49942017 C-23.87847496 82.17511299 -24.1037059 82.85080582 -24.33576202 83.54697418 C-30.84971203 103.09348177 -37.3019461 122.65923611 -43.64982605 142.26040649 C-47.04178352 152.73315522 -50.47562153 163.18933509 -54.02360535 173.61050415 C-54.31130798 174.4620105 -54.59901062 175.31351685 -54.89543152 176.19082642 C-55.26450623 177.27279297 -55.26450623 177.27279297 -55.64103699 178.37661743 C-56.24698735 180.14074862 -56.24698735 180.14074862 -56.15324402 182.12442017 C-39.65324402 182.12442017 -23.15324402 182.12442017 -6.15324402 182.12442017 C-3.01728342 174.59811474 0.0017689 167.18442696 2.65925598 159.49942017 C2.97056458 158.61641235 3.28187317 157.73340454 3.60261536 156.82363892 C5.23252649 152.56969134 5.23252649 152.56969134 5.84675598 148.12442017 C40.00175598 148.61942017 40.00175598 148.61942017 74.84675598 149.12442017 C78.80675598 160.01442017 82.76675598 170.90442017 86.84675598 182.12442017 C104.33675598 182.12442017 121.82675598 182.12442017 139.84675598 182.12442017 C138.58697962 176.45542654 137.37686861 171.34053178 135.56292725 165.90544128 C135.23065458 164.90372002 135.23065458 164.90372002 134.89166933 163.88176197 C134.15821029 161.67417937 133.41840719 159.46877957 132.67854309 157.26333618 C132.14747569 155.6693421 131.61680084 154.07521718 131.08648682 152.48097229 C129.65265046 148.17435282 128.21324967 143.86961228 126.77272868 139.56522489 C125.26468792 135.05618653 123.76153869 130.54551791 122.25778198 126.03504944 C119.73470755 118.46951152 117.20826074 110.90510683 114.67951965 103.34146118 C111.43117808 93.62537958 108.1884353 83.90743901 104.94744015 74.18890476 C102.16100423 65.8335719 99.37201226 57.47909265 96.58260655 49.12475085 C95.68546532 46.43742836 94.78867717 43.74998823 93.89193535 41.06253242 C92.485753 36.84886978 91.07798064 32.63574158 89.66895485 28.42302895 C89.15122405 26.87436699 88.63400231 25.32553474 88.1173172 23.77652359 C87.41413559 21.66871893 86.70911896 19.56153716 86.00360107 17.45451355 C85.41155837 15.68284742 85.41155837 15.68284742 84.8075552 13.87539005 C83.94106543 11.20696623 83.94106543 11.20696623 82.84675598 9.12442017 C55.78675598 9.12442017 28.72675598 9.12442017 0.84675598 9.12442017 Z " fill="#C0BE15" transform="translate(318.1532440185547,1067.8755798339844)"/>
<path d="M0 0 C20.79 0 41.58 0 63 0 C63 43.89 63 87.78 63 133 C96.99 133 130.98 133 166 133 C166 151.81 166 170.62 166 190 C111.22 190 56.44 190 0 190 C0 127.3 0 64.6 0 0 Z M9 9 C9 66.09 9 123.18 9 182 C57.84 182 106.68 182 157 182 C157 168.8 157 155.6 157 142 C123.01 142 89.02 142 54 142 C54 98.11 54 54.22 54 9 C39.15 9 24.3 9 9 9 Z " fill="#C1BF15" transform="translate(985,1068)"/>
<path d="M0 0 C20.79 0 41.58 0 63 0 C63 43.89 63 87.78 63 133 C96.99 133 130.98 133 166 133 C166 151.81 166 170.62 166 190 C111.22 190 56.44 190 0 190 C0 127.3 0 64.6 0 0 Z M9 9 C9 66.09 9 123.18 9 182 C57.84 182 106.68 182 157 182 C157 168.8 157 155.6 157 142 C123.01 142 89.02 142 54 142 C54 98.11 54 54.22 54 9 C39.15 9 24.3 9 9 9 Z " fill="#C1BF15" transform="translate(813,1068)"/>
<path d="M0 0 C55.11 0 110.22 0 167 0 C167 18.81 167 37.62 167 57 C149.51 57 132.02 57 114 57 C114 100.89 114 144.78 114 190 C93.54 190 73.08 190 52 190 C52 146.11 52 102.22 52 57 C34.84 57 17.68 57 0 57 C0 38.19 0 19.38 0 0 Z M8 9 C8 22.2 8 35.4 8 49 C25.49 49 42.98 49 61 49 C61 92.89 61 136.78 61 182 C75.85 182 90.7 182 106 182 C106 138.11 106 94.22 106 49 C123.16 49 140.32 49 158 49 C158 35.8 158 22.6 158 9 C108.5 9 59 9 8 9 Z " fill="#C1BF15" transform="translate(462,1068)"/>
<path d="M0 0 C16.37821583 -0.09390556 32.75634284 -0.16420357 49.13476372 -0.20724869 C56.74146459 -0.22777645 64.34799712 -0.25570687 71.95458984 -0.30175781 C78.59312413 -0.3419285 85.23153636 -0.36750369 91.87018883 -0.37635398 C95.37754014 -0.38151828 98.88454262 -0.39344482 102.39178085 -0.42292023 C120.36330584 -0.56807759 138.39762681 -0.65560342 154.875 7.5625 C155.5656958 7.89838135 156.2563916 8.2342627 156.96801758 8.58032227 C172.85233809 16.75355731 181.45878174 30.46238898 187 47 C191.24328411 62.70015119 190.76581101 83.02974692 182.81640625 97.43359375 C171.27861284 113.73537928 153.45348867 123.77430877 133.99487305 127.57687378 C128.243913 128.38938969 122.47655503 128.24216556 116.6796875 128.1953125 C115.49060791 128.19329834 114.30152832 128.19128418 113.07641602 128.18920898 C108.67590422 128.17882181 104.27544784 128.15089982 99.875 128.125 C90.01625 128.08375 80.1575 128.0425 70 128 C70 148.46 70 168.92 70 190 C46.9 190 23.8 190 0 190 C0 187.36 0 184.72 0 182 C20.13 182 40.26 182 61 182 C61 161.21 61 140.42 61 119 C65.78371094 118.98582031 70.56742188 118.97164062 75.49609375 118.95703125 C78.56322138 118.93692671 81.63020538 118.91536488 84.69726562 118.88867188 C89.54408219 118.84662449 94.39053379 118.80939333 99.23754883 118.80444336 C103.15423635 118.80010113 107.07009995 118.77116101 110.9865284 118.72656822 C112.46565984 118.71377915 113.94489087 118.70921781 115.42407036 118.71384621 C133.60211764 118.75739469 152.67119337 113.83651725 166.2265625 100.99609375 C175.675388 90.36096196 180.40511864 77.19535712 180 63 C178.01541844 46.21008873 172.01617772 32.47958641 159.1796875 21.43359375 C149.27930165 13.9985981 134.6973984 9.92621001 122.4190979 9.84178162 C121.3338382 9.8319928 120.24857849 9.82220398 119.13043213 9.81211853 C117.95510925 9.80636307 116.77978638 9.8006076 115.56884766 9.79467773 C113.69484787 9.77982834 113.69484787 9.77982834 111.7829895 9.76467896 C108.37023569 9.73856575 104.95750434 9.71667318 101.54471254 9.69667697 C97.97325458 9.67474649 94.40183819 9.64739249 90.83041382 9.62062073 C84.07326987 9.57078902 77.31610273 9.52581504 70.55891359 9.48259836 C62.86360927 9.43314439 55.16834669 9.37825663 47.47308278 9.32291877 C31.64876046 9.20924499 15.8243997 9.10237439 0 9 C0 6.03 0 3.06 0 0 Z " fill="#C1BF15" transform="translate(359,1497)"/>
<path d="M0 0 C1.52352837 -0.00043808 1.52352837 -0.00043808 3.07783508 -0.00088501 C6.40541391 0.00049847 9.73276345 0.01601324 13.06030273 0.03173828 C15.37914406 0.0354719 17.69798697 0.03831723 20.01683044 0.04031372 C26.09787407 0.04792266 32.17882103 0.06754755 38.25982666 0.08972168 C44.47390434 0.11023924 50.68799776 0.11932805 56.90209961 0.12939453 C69.0785742 0.15079609 81.25497728 0.18489883 93.43139648 0.22705078 C93.43139648 3.19705078 93.43139648 6.16705078 93.43139648 9.22705078 C92.17795944 9.23069641 90.9245224 9.23434204 89.63310242 9.23809814 C77.7898782 9.27512481 65.94691215 9.33298145 54.1038847 9.41095352 C48.01602324 9.45037285 41.92830523 9.48258867 35.84033203 9.49804688 C29.95923475 9.51324974 24.078532 9.54776029 18.19761086 9.5953598 C15.95991264 9.6101361 13.72215808 9.61808963 11.48441124 9.61893463 C-8.87506319 9.36530501 -8.87506319 9.36530501 -25.92407227 19.45751953 C-33.75130774 27.87969927 -36.33983537 38.496943 -35.94360352 49.78955078 C-34.1146305 66.55513677 -23.52823167 80.15632526 -12.56860352 92.22705078 C-12.07859863 92.77200195 -11.58859375 93.31695313 -11.08374023 93.87841797 C-6.36667704 99.12028734 -1.55967486 104.24397795 3.43139648 109.22705078 C14.37123492 120.74794291 14.37123492 120.74794291 14.99389648 128.78955078 C14.84471184 132.48808683 14.52868824 133.1122964 11.99389648 136.10205078 C3.37213145 141.99901271 -7.13075848 142.38521428 -17.22094727 142.32470703 C-18.12108047 142.32329208 -19.02121368 142.32187714 -19.94862366 142.32041931 C-22.80115189 142.31485738 -25.65359933 142.30231205 -28.50610352 142.28955078 C-30.44946175 142.28453086 -32.39282123 142.27996881 -34.33618164 142.27587891 C-39.08035302 142.26490044 -43.82446461 142.24766231 -48.56860352 142.22705078 C-48.56860352 139.25705078 -48.56860352 136.28705078 -48.56860352 133.22705078 C-47.24731445 133.20723145 -45.92602539 133.18741211 -44.56469727 133.16699219 C-39.63694012 133.0906056 -34.70946559 133.0019401 -29.78198242 132.90966797 C-27.65410972 132.87151435 -25.52617551 132.83663832 -23.39819336 132.80517578 C-20.32977397 132.75922846 -17.26177304 132.7012839 -14.19360352 132.64111328 C-12.77905884 132.62378647 -12.77905884 132.62378647 -11.3359375 132.60610962 C-5.77025151 132.48327854 -0.91680176 131.78876851 4.43139648 130.22705078 C4.27101399 123.8117512 0.76028968 120.51391589 -3.56860352 116.22705078 C-5.46473394 114.51055377 -7.39830438 112.84638962 -9.34204102 111.18408203 C-27.51846251 95.20796419 -44.83490648 73.33929191 -46.79125977 48.38720703 C-47.20369673 34.74092319 -43.82339767 21.52296798 -34.38110352 11.41455078 C-24.46507151 2.10696519 -13.19362418 -0.10091212 0 0 Z " fill="#C0BE15" transform="translate(156.568603515625,1067.77294921875)"/>
<path d="M0 0 C1.1858519 0.00424484 2.3717038 0.00848969 3.5934906 0.01286316 C7.35293001 0.02955442 11.11181842 0.06718987 14.87109375 0.10546875 C17.43163284 0.12052789 19.9921804 0.13421413 22.55273438 0.14648438 C28.80487309 0.17942668 35.05669404 0.22953055 41.30859375 0.29296875 C41.30859375 2.93296875 41.30859375 5.57296875 41.30859375 8.29296875 C40.75228775 8.3010556 40.19598175 8.30914246 39.62281799 8.31747437 C33.7982109 8.40397273 27.97392656 8.50349229 22.1496582 8.61035156 C19.98011728 8.64847887 17.81051663 8.68335918 15.64086914 8.71484375 C12.51036328 8.76084889 9.38026281 8.81878314 6.25 8.87890625 C5.29025772 8.89045746 4.33051544 8.90200867 3.34169006 8.91390991 C-6.28022976 8.73254998 -6.28022976 8.73254998 -14.69140625 12.29296875 C-15.2377845 14.94680595 -15.11661726 16.63397014 -13.6328125 18.93359375 C-11.05784646 22.03192687 -8.24885651 24.73950376 -5.19140625 27.35546875 C13.37238513 43.24179022 32.47634092 64.97752372 35.30859375 90.29296875 C36.1508621 103.82836885 34.6202782 115.26726489 26.30859375 126.29296875 C18.63979836 134.75338172 7.1755319 140.32449391 -4.1841774 141.56523705 C-6.76569199 141.65779522 -9.33158136 141.66485577 -11.91455078 141.63354492 C-12.88161453 141.633983 -13.84867828 141.63442108 -14.845047 141.63487244 C-18.00498463 141.63280159 -21.16437513 141.60955156 -24.32421875 141.5859375 C-26.5295279 141.58033548 -28.7348408 141.57606825 -30.94015503 141.57307434 C-36.71710697 141.56167333 -42.49382914 141.5322472 -48.27069092 141.4989624 C-54.17652275 141.46815891 -60.08239207 141.4545471 -65.98828125 141.43945312 C-77.55608999 141.40737277 -89.12372894 141.35623419 -100.69140625 141.29296875 C-100.69140625 138.65296875 -100.69140625 136.01296875 -100.69140625 133.29296875 C-99.54707626 133.29154373 -98.40274628 133.29011871 -97.22373962 133.28865051 C-86.38242172 133.27190267 -75.54147543 133.22889275 -64.70035458 133.16087818 C-59.12822641 133.12674487 -53.55636847 133.10151954 -47.98413086 133.09741211 C-42.59571221 133.09309976 -37.20790171 133.0643955 -31.81967354 133.01953697 C-29.77507649 133.00665525 -27.73040632 133.00222076 -25.68577385 133.00681496 C-10.77956947 133.03248164 3.68828829 132.43595191 15.51171875 122.1015625 C22.31970154 115.24917982 25.36200358 107.62160267 25.68359375 97.91796875 C24.60529639 68.26479142 1.39848859 47.89599441 -18.32421875 28.70410156 C-23.24733182 23.86424702 -26.39214559 19.38532887 -27.06640625 12.41796875 C-26.99994359 9.12504626 -26.72123111 8.3362629 -24.75390625 5.48046875 C-17.10441986 0.0165499 -9.13969644 -0.12471463 0 0 Z " fill="#C0BE15" transform="translate(208.69140625,1116.70703125)"/>
<path d="M0 0 C2.36233106 2.88352706 3.70105273 5.47434598 4.88183594 9.00195312 C5.38816559 10.49631897 5.38816559 10.49631897 5.90472412 12.02087402 C6.26100891 13.0967981 6.6172937 14.17272217 6.984375 15.28125 C7.36305725 16.40454712 7.7417395 17.52784424 8.13189697 18.68518066 C9.3448857 22.28782759 10.54775744 25.89375437 11.75 29.5 C12.9363934 33.0373893 14.12488242 36.57406845 15.31384277 40.1105957 C16.09121269 42.42381638 16.86734557 44.73745316 17.64221191 47.05151367 C20.34210483 55.10064346 23.11477148 63.12150042 25.98187256 71.1126709 C28 76.78830356 28 76.78830356 28 79 C9.19 79 -9.62 79 -29 79 C-27.23236423 73.10788076 -25.52004451 67.46908402 -23.38037109 61.74609375 C-23.01636452 60.76848839 -23.01636452 60.76848839 -22.64500427 59.77113342 C-21.85757434 57.65875261 -21.06561218 55.5481055 -20.2734375 53.4375 C-19.71936525 51.95452025 -19.16554681 50.47144564 -18.61196899 48.98828125 C-17.45909372 45.90144342 -16.30413345 42.8153974 -15.14746094 39.72998047 C-13.6637935 35.77220259 -12.18396064 31.81300497 -10.70548058 27.85328674 C-9.56551011 24.80067678 -8.42429154 21.74853479 -7.28261185 18.69656372 C-6.73616832 17.23576842 -6.18994074 15.77489232 -5.64393234 14.31393433 C-4.88406271 12.28176896 -4.12269338 10.2501723 -3.36083984 8.21875 C-2.92798676 7.06310547 -2.49513367 5.90746094 -2.04916382 4.71679688 C-1 2 -1 2 0 0 Z M0 31 C-2.14065875 36.23095016 -4.27678774 41.46371772 -6.40869141 46.69824219 C-7.13497886 48.47967746 -7.86251396 50.26060458 -8.59130859 52.04101562 C-9.6370557 54.59633781 -10.67834086 57.15343812 -11.71875 59.7109375 C-12.04685669 60.50994476 -12.37496338 61.30895203 -12.7130127 62.13217163 C-14.39247066 65.9422255 -14.39247066 65.9422255 -15 70 C-5.43 70 4.14 70 14 70 C11.72197185 61.64723011 9.26677797 53.59302068 6.4375 45.4375 C6.03853516 44.26380859 5.63957031 43.09011719 5.22851562 41.88085938 C4.84244141 40.76388672 4.45636719 39.64691406 4.05859375 38.49609375 C3.71111084 37.48732178 3.36362793 36.4785498 3.00561523 35.43920898 C2.13125918 32.87511532 2.13125918 32.87511532 0 31 Z " fill="#C0BE15" transform="translate(837,1536)"/>
<path d="M0 0 C2.36233106 2.88352706 3.70105273 5.47434598 4.88183594 9.00195312 C5.38816559 10.49631897 5.38816559 10.49631897 5.90472412 12.02087402 C6.26100891 13.0967981 6.6172937 14.17272217 6.984375 15.28125 C7.36305725 16.40454712 7.7417395 17.52784424 8.13189697 18.68518066 C9.3448857 22.28782759 10.54775744 25.89375437 11.75 29.5 C12.9363934 33.0373893 14.12488242 36.57406845 15.31384277 40.1105957 C16.09121269 42.42381638 16.86734557 44.73745316 17.64221191 47.05151367 C20.34210483 55.10064346 23.11477148 63.12150042 25.98187256 71.1126709 C28 76.78830356 28 76.78830356 28 79 C9.19 79 -9.62 79 -29 79 C-27.23236423 73.10788076 -25.52004451 67.46908402 -23.38037109 61.74609375 C-23.01636452 60.76848839 -23.01636452 60.76848839 -22.64500427 59.77113342 C-21.85757434 57.65875261 -21.06561218 55.5481055 -20.2734375 53.4375 C-19.71936525 51.95452025 -19.16554681 50.47144564 -18.61196899 48.98828125 C-17.45909372 45.90144342 -16.30413345 42.8153974 -15.14746094 39.72998047 C-13.6637935 35.77220259 -12.18396064 31.81300497 -10.70548058 27.85328674 C-9.56551011 24.80067678 -8.42429154 21.74853479 -7.28261185 18.69656372 C-6.73616832 17.23576842 -6.18994074 15.77489232 -5.64393234 14.31393433 C-4.88406271 12.28176896 -4.12269338 10.2501723 -3.36083984 8.21875 C-2.92798676 7.06310547 -2.49513367 5.90746094 -2.04916382 4.71679688 C-1 2 -1 2 0 0 Z M0 31 C-2.14065875 36.23095016 -4.27678774 41.46371772 -6.40869141 46.69824219 C-7.13497886 48.47967746 -7.86251396 50.26060458 -8.59130859 52.04101562 C-9.6370557 54.59633781 -10.67834086 57.15343812 -11.71875 59.7109375 C-12.04685669 60.50994476 -12.37496338 61.30895203 -12.7130127 62.13217163 C-14.39247066 65.9422255 -14.39247066 65.9422255 -15 70 C-5.43 70 4.14 70 14 70 C11.72197185 61.64723011 9.26677797 53.59302068 6.4375 45.4375 C6.03853516 44.26380859 5.63957031 43.09011719 5.22851562 41.88085938 C4.84244141 40.76388672 4.45636719 39.64691406 4.05859375 38.49609375 C3.71111084 37.48732178 3.36362793 36.4785498 3.00561523 35.43920898 C2.13125918 32.87511532 2.13125918 32.87511532 0 31 Z " fill="#C0BE15" transform="translate(359,1107)"/>
<path d="M0 0 C7.84767528 -0.09193502 15.69347463 -0.17154813 23.54125977 -0.21972656 C26.2098681 -0.2375524 28.87761523 -0.26708675 31.54614258 -0.30175781 C35.38634076 -0.35039508 39.22595575 -0.37299739 43.06640625 -0.390625 C44.25520889 -0.41127014 45.44401154 -0.43191528 46.6688385 -0.45318604 C53.3509049 -0.45498753 57.59228225 -0.04951128 63 4 C69.11313854 11.14766968 68.38329234 20.16410293 68 29 C67.52056797 33.02722903 66.33977808 35.56314247 63.8125 38.8125 C57.16959705 43.9792023 49.55443264 43.26788729 41.50390625 43.1953125 C40.31522446 43.1924826 39.12654266 43.18965271 37.90184021 43.18673706 C34.12195582 43.17558206 30.34231224 43.15048566 26.5625 43.125 C23.99284197 43.11496417 21.42318022 43.10583937 18.85351562 43.09765625 C12.56884399 43.07736348 6.28469016 43.0382048 0 43 C0 28.81 0 14.62 0 0 Z M9 9 C9 17.25 9 25.5 9 34 C15.03273801 34.06893099 21.06410555 34.12864717 27.09692383 34.16479492 C29.14840326 34.17986622 31.19985056 34.20032682 33.2512207 34.22631836 C36.20271748 34.26277424 39.15378763 34.27974306 42.10546875 34.29296875 C43.02023483 34.30845261 43.93500092 34.32393646 44.87748718 34.33988953 C49.72865373 34.34116695 53.10700966 34.23839578 57 31 C59.97425326 26.53862011 59.49867492 22.23225066 59 17 C57.41993067 13.2078336 55.5789838 10.9923196 52 9 C48.73318138 8.57893833 45.49204424 8.65167345 42.203125 8.70703125 C40.77996979 8.71339851 40.77996979 8.71339851 39.32806396 8.71989441 C36.30175234 8.73666918 33.2761099 8.77431944 30.25 8.8125 C28.19662421 8.82754838 26.14323797 8.84123652 24.08984375 8.85351562 C19.05943146 8.8840153 14.03046357 8.94273924 9 9 Z " fill="#C0BE15" transform="translate(425,1541)"/>
<path d="M0 0 C2.97 0 5.94 0 9 0 C9 30.69 9 61.38 9 93 C6.03 93 3.06 93 0 93 C0 62.31 0 31.62 0 0 Z " fill="#C1BF15" transform="translate(359,1546)"/>
</svg>
